<svg width="661" height="462" viewBox="0 0 661 462" fill="none" xmlns="http://www.w3.org/2000/svg">
<path d="M0.368164 135.219L399.193 98.0632L558.723 312.769L133.09 448.524L0.368164 135.219Z" fill="#858484"/>
<path d="M0.368164 135.219L399.193 98.0632L558.723 312.769L133.09 448.524L0.368164 135.219Z" fill="#858484"/>
<path d="M0.368164 135.219L399.193 98.0632L558.723 312.769L133.09 448.524L0.368164 135.219Z" fill="#858484"/>
<path d="M0.368164 135.219L399.193 98.0632L558.723 312.769L133.09 448.524L0.368164 135.219Z" fill="#494949"/>
<path d="M57 58.7832L458.145 59.5155L599.981 302.561L164.077 403.4L57 58.7832Z" fill="#858484"/>
<path d="M57 58.7832L458.145 59.5155L599.981 302.561L164.077 403.4L57 58.7832Z" fill="#858484"/>
<path d="M57 58.7832L458.145 59.5155L599.981 302.561L164.077 403.4L57 58.7832Z" fill="#858484"/>
<path d="M57 58.7832L458.145 59.5155L599.981 302.561L164.077 403.4L57 58.7832Z" fill="#858484"/>
<path d="M148.5 0.5L547 46.5L660.5 304L216 355L148.5 0.5Z" fill="#A29F9F"/>
<path d="M266.707 186.801L232.184 188.399L231.563 174.973L240.193 174.574L238.33 134.297L229.699 134.696L229.078 121.271L263.601 119.673L264.222 133.099L255.591 133.498L257.455 173.775L266.086 173.376L266.707 186.801ZM331.138 146.34L318.822 170.935L305.396 171.556L290.861 148.203L292.592 185.603L275.33 186.402L272.224 119.274L290.444 118.431L311.266 153.025L328.803 116.656L347.024 115.813L350.13 182.941L332.869 183.74L331.138 146.34ZM373.663 181.852L354.963 182.717L377.269 114.413L396.449 113.525L424.968 179.478L406.268 180.343L401.398 168.556L377.423 169.665L373.663 181.852ZM381.162 156.999L396.505 156.289L387.791 134.108L381.162 156.999ZM485.358 175.242C470.472 177.532 456.763 178.967 444.233 179.547C437.967 179.837 433.296 178.58 430.219 175.775C427.142 172.97 425.459 168.435 425.169 162.17L423.749 131.483C423.438 124.77 424.716 119.842 427.582 116.698C430.508 113.487 435.328 111.726 442.041 111.416L476.564 109.818L477.185 123.244L446.498 124.664C442.662 124.841 440.833 126.848 441.011 130.684L442.431 161.371C442.499 162.842 442.969 164.005 443.841 164.862C444.775 165.651 445.977 166.012 447.447 165.944C454.799 165.604 461.505 165.133 467.564 164.533L466.92 150.628L454.453 151.204L453.921 139.697L483.649 138.321L485.358 175.242ZM548.256 173.773L495.033 176.235L491.926 109.107L545.149 106.644L545.771 120.07L509.809 121.734L510.408 134.68L538.698 133.371L539.319 146.797L511.029 148.106L511.673 162.011L547.634 160.347L548.256 173.773Z" fill="white"/>
</svg>
