<svg width="271" height="57" viewBox="0 0 271 57" fill="none" xmlns="http://www.w3.org/2000/svg">
<path d="M20.8441 16.8818C20.8441 6.95132 16.6113 0 10.4932 0C4.58856 0 0 6.00557 0 16.8818C0 27.1905 4.62413 34 10.3865 34C15.5442 34 20.8441 28.8929 20.8441 16.8818ZM3.62816 16.8818C3.62816 10.7344 5.90466 4.53964 10.4932 4.53964C15.0462 4.53964 17.216 11.3964 17.216 16.8818C17.216 24.2114 14.0858 29.0821 10.3865 29.0821C6.61606 29.0821 3.62816 24.0223 3.62816 16.8818Z" fill="white"/>
<path d="M43.5618 16.8818C43.5618 6.95132 39.329 0 33.2109 0C27.3063 0 22.7177 6.00557 22.7177 16.8818C22.7177 27.1905 27.3418 34 33.1042 34C38.2619 34 43.5618 28.8929 43.5618 16.8818ZM26.3459 16.8818C26.3459 10.7344 28.6223 4.53964 33.2109 4.53964C37.7639 4.53964 39.9337 11.3964 39.9337 16.8818C39.9337 24.2114 36.8035 29.0821 33.1042 29.0821C29.3338 29.0821 26.3459 24.0223 26.3459 16.8818Z" fill="white"/>
<path d="M66.2795 16.8818C66.2795 6.95132 62.0467 0 55.9286 0C50.0239 0 45.4354 6.00557 45.4354 16.8818C45.4354 27.1905 50.0595 34 55.8219 34C60.9796 34 66.2795 28.8929 66.2795 16.8818ZM49.0636 16.8818C49.0636 10.7344 51.34 4.53964 55.9286 4.53964C60.4816 4.53964 62.6514 11.3964 62.6514 16.8818C62.6514 24.2114 59.5212 29.0821 55.8219 29.0821C52.0514 29.0821 49.0636 24.0223 49.0636 16.8818Z" fill="white"/>
<path d="M77.8198 20.8067L83.7956 11.3018L86.0366 13.0042L81.0567 21.0904L86.0366 29.1766L83.7956 30.9263L77.8198 21.4214V20.8067ZM84.8627 20.8067L90.9097 11.3018L93.115 13.0042L88.1352 21.0904L93.115 29.1766L90.9097 30.9263L84.8627 21.4214V20.8067Z" fill="white"/>
<path d="M116.975 33.5744L110.039 0.472879H102.925L95.9531 33.5744H99.5813L101.751 23.0765H111.213L113.418 33.5744H116.975ZM105.522 5.0598H107.442L110.252 18.4896H102.711L105.522 5.0598Z" fill="white"/>
<path d="M133.159 0.472879H126.01L119.038 33.5744H122.631L128.642 5.0598H130.527L136.503 33.5744H140.095L133.159 0.472879Z" fill="white"/>
<path d="M147.093 14.1864V0.472879H143.679V33.5744C144.746 33.5744 146.702 33.8108 148.907 33.8108C154.136 33.8108 160.859 32.5341 160.859 23.8331C160.859 15.2267 154.279 13.9026 150.224 13.9026C148.409 13.9026 147.093 14.1864 147.093 14.1864ZM147.093 29.5076V18.8206C148.054 18.6314 149.192 18.4896 150.33 18.4896C153.781 18.4896 157.338 19.6718 157.338 23.7858C157.338 28.8929 152.713 29.7441 149.69 29.7441C148.196 29.7441 147.093 29.5076 147.093 29.5076Z" fill="white"/>
<path d="M182.968 0.472879H165.717V33.5744H169.167V5.0598H179.518V33.5744H182.968V0.472879Z" fill="white"/>
<path d="M202.774 7.8025L192.921 20.9013V0.472879H189.471V33.5744H192.921V27.3797L202.774 14.2809V33.5744H206.224V0.472879H202.774V7.8025Z" fill="white"/>
<path d="M224.441 13.7608H214.019V0.472879H210.533V33.5744H214.019V18.3477H224.441V33.5744H227.892V0.472879H224.441V13.7608Z" fill="white"/>
<path d="M253.073 33.5744L246.137 0.472879H239.023L232.051 33.5744H235.679L237.849 23.0765H247.311L249.516 33.5744H253.073ZM241.619 5.0598H243.54L246.35 18.4896H238.809L241.619 5.0598Z" fill="white"/>
<path d="M271 21.4214L264.953 30.9263L262.748 29.1766L267.728 21.0904L262.748 13.0042L264.953 11.3018L271 20.8067V21.4214ZM263.922 21.4214L257.91 30.9263L255.705 29.1766L260.685 21.0904L255.705 13.0042L257.91 11.3018L263.922 20.8067V21.4214Z" fill="white"/>
<path d="M9.266 46.694L5.304 46.708L9.826 42.2H7.908L4.366 45.728V42.2H3.008V52H4.366V48.066H7.908L7.922 52H9.28L9.266 47.114V46.694ZM15.837 42.2H13.023L10.279 52H11.693L14.059 43.558H14.801L17.153 52H18.567L15.837 42.2ZM25.9553 44.37L22.0773 48.248V42.2H20.7193V52H22.0773V50.166L25.9553 46.288V52H27.3133V42.2H25.9553V44.37ZM35.1413 48.626L35.7713 43.558H36.1773L37.5633 52H38.9353L37.3253 42.2H34.5673L33.9373 47.254H33.5453L32.6773 42.2H29.9333L28.7573 52H30.1293L31.1373 43.558H31.5433L32.3973 48.626H35.1413ZM48.5277 52L45.7977 42.2H42.9977L40.2537 52H41.6817L42.5357 48.892H46.2597L47.1277 52H48.5277ZM44.0197 43.558H44.7757L45.8817 47.534H42.9137L44.0197 43.558ZM49.3956 42.2V43.558H52.4476V52H53.8056V43.558H56.7176V42.2H49.3956ZM63.7034 44.37L59.8254 48.248V42.2H58.4674V52H59.8254V50.166L63.7034 46.288V52H65.0614V42.2H63.7034V44.37ZM71.7833 42.2C71.7833 43.054 71.6433 45.854 69.7253 45.826C67.1773 45.784 67.7093 42.2 67.7093 42.2H66.3513C66.3513 42.2 65.5533 47.184 69.7253 47.184C70.4533 47.184 71.4473 46.82 71.7833 46.386L71.7973 52H73.1553V42.2H71.7833ZM81.8597 42.2H75.4757V52H81.8597V50.642H76.8477V47.562H80.9497V46.204H76.8477V43.558H81.8597V42.2ZM90.0108 50.642C86.8888 50.502 84.9008 49.788 84.9008 47.1C84.9008 44.258 86.9028 43.586 89.9968 43.572L90.0108 42.214C86.5668 42.214 83.5428 42.83 83.5428 47.1C83.5428 51.342 86.5808 52 90.0108 52V50.642ZM98.475 46.694L94.513 46.708L99.035 42.2H97.117L93.575 45.728V42.2H92.217V52H93.575V48.066H97.117L97.131 52H98.489L98.475 47.114V46.694ZM105.676 44.37L101.798 48.248V42.2H100.44V52H101.798V50.166L105.676 46.288V52H107.034V42.2H105.676V44.37ZM114.932 42.2H108.548V52H114.932V50.642H109.92V47.562H114.022V46.204H109.92V43.558H114.932V42.2ZM126.72 50.642C123.598 50.502 121.61 49.788 121.61 47.1C121.61 44.258 123.612 43.586 126.706 43.572L126.72 42.214C123.276 42.214 120.252 42.83 120.252 47.1C120.252 51.342 123.29 52 126.72 52V50.642ZM134.428 44.37L130.55 48.248V42.2H129.192V52H130.55V50.166L134.428 46.288V52H135.786V42.2H134.428V44.37ZM143.796 50.642C140.674 50.502 138.686 49.788 138.686 47.1C138.686 44.258 140.688 43.586 143.782 43.572L143.796 42.214C140.352 42.214 137.328 42.83 137.328 47.1C137.328 51.342 140.366 52 143.796 52V50.642ZM145.372 42.2V43.558H148.424V52H149.782V43.558H152.694V42.2H145.372ZM160.268 42.2H153.884V52H160.268V50.642H155.256V47.562H159.358V46.204H155.256V43.558H160.268V42.2ZM168.237 48.626L168.867 43.558H169.273L170.659 52H172.031L170.421 42.2H167.663L167.033 47.254H166.641L165.773 42.2H163.029L161.853 52H163.225L164.233 43.558H164.639L165.493 48.626H168.237ZM181.329 52H182.673V42.2H181.329V52ZM174.833 42.2H173.503V52C172.103 52 173.503 52 173.503 52C173.923 52 174.693 52.07 175.561 52.07C177.619 52.07 180.265 51.692 180.265 49.116C180.265 46.568 177.675 46.176 176.065 46.176C175.351 46.176 174.833 46.26 174.833 46.26V42.2ZM174.833 47.632C175.225 47.576 175.673 47.534 176.121 47.534C177.479 47.534 178.879 47.884 178.879 49.102C178.879 50.614 177.059 50.866 175.869 50.866C175.281 50.866 174.833 50.796 174.833 50.796V47.632Z" fill="white"/>
</svg>
