<svg width="22" height="22" viewBox="0 0 22 22" fill="none" xmlns="http://www.w3.org/2000/svg">
<path d="M20.7167 22C18.0889 22 15.5275 21.4141 13.0326 20.2424C10.5368 19.0716 8.32659 17.5234 6.402 15.598C4.47659 13.6734 2.92844 11.4632 1.75756 8.96744C0.585852 6.47248 0 3.91111 0 1.28333C0 0.916667 0.122222 0.611111 0.366667 0.366667C0.611111 0.122222 0.916667 0 1.28333 0H6.23333C6.51852 0 6.77315 0.0916665 6.99722 0.275C7.2213 0.458333 7.3537 0.692593 7.39444 0.977778L8.18889 5.25556C8.22963 5.54074 8.22474 5.80026 8.17422 6.03411C8.12289 6.26878 8.00556 6.47778 7.82222 6.66111L4.88889 9.65555C5.74444 11.1222 6.81389 12.4972 8.09722 13.7806C9.38056 15.0639 10.7963 16.1741 12.3444 17.1111L15.2167 14.2389C15.4 14.0556 15.6396 13.9179 15.9353 13.8258C16.2303 13.7345 16.5204 13.7093 16.8056 13.75L21.0222 14.6056C21.3074 14.6667 21.5417 14.804 21.725 15.0174C21.9083 15.2317 22 15.4815 22 15.7667V20.7167C22 21.0833 21.8778 21.3889 21.6333 21.6333C21.3889 21.8778 21.0833 22 20.7167 22Z" fill="white"/>
</svg>
