<svg width="22" height="18" viewBox="0 0 22 18" fill="none" xmlns="http://www.w3.org/2000/svg">
<path d="M2.2 17.1807C1.595 17.1807 1.07727 16.9809 0.6468 16.5812C0.2156 16.1808 0 15.6997 0 15.1379V2.88075C0 2.31896 0.2156 1.83821 0.6468 1.43849C1.07727 1.03809 1.595 0.837891 2.2 0.837891H19.8C20.405 0.837891 20.9231 1.03809 21.3543 1.43849C21.7848 1.83821 22 2.31896 22 2.88075V15.1379C22 15.6997 21.7848 16.1808 21.3543 16.5812C20.9231 16.9809 20.405 17.1807 19.8 17.1807H2.2ZM11 9.852C11.0917 9.852 11.1877 9.83906 11.2882 9.81318C11.3894 9.78799 11.4858 9.74986 11.5775 9.69878L19.36 5.17896C19.5067 5.09384 19.6167 4.98761 19.69 4.86028C19.7633 4.73226 19.8 4.59164 19.8 4.43843C19.8 4.09795 19.6442 3.84259 19.3325 3.67235C19.0208 3.50212 18.7 3.51063 18.37 3.69789L11 7.98789L3.63 3.69789C3.3 3.51063 2.97917 3.5062 2.6675 3.68461C2.35583 3.8637 2.2 4.11497 2.2 4.43843C2.2 4.60866 2.23667 4.75745 2.31 4.88479C2.38333 5.01281 2.49333 5.11087 2.64 5.17896L10.4225 9.69878C10.5142 9.74986 10.6106 9.78799 10.7118 9.81318C10.8123 9.83906 10.9083 9.852 11 9.852Z" fill="white"/>
</svg>
