<svg width="22" height="36" viewBox="0 0 22 36" fill="none" xmlns="http://www.w3.org/2000/svg">
<path d="M7.85714 30.5333H14.1429V28.9666H7.85714V30.5333ZM3.14286 35.2333C2.27857 35.2333 1.53895 34.9267 0.924 34.3136C0.308 33.6995 0 32.9616 0 32.0999V3.89994C0 3.03827 0.308 2.30037 0.924 1.68623C1.53895 1.07315 2.27857 0.766602 3.14286 0.766602H18.8571C19.7214 0.766602 20.4616 1.07315 21.0776 1.68623C21.6925 2.30037 22 3.03827 22 3.89994V32.0999C22 32.9616 21.6925 33.6995 21.0776 34.3136C20.4616 34.9267 19.7214 35.2333 18.8571 35.2333H3.14286ZM3.14286 24.2666H18.8571V8.59994H3.14286V24.2666Z" fill="white"/>
</svg>
