<svg width="50" height="50" viewBox="0 0 50 50" fill="none" xmlns="http://www.w3.org/2000/svg">
<path d="M0.695484 20.725L11.3174 10.1026C11.9075 9.51247 12.603 9.09094 13.4039 8.83803C14.2047 8.58511 15.0267 8.54296 15.8697 8.71157L19.1574 9.40709C16.8813 12.1049 15.0899 14.5497 13.7832 16.7416C12.4766 18.9336 11.212 21.5892 9.98967 24.7085L0.695484 20.725ZM13.6568 26.4789C14.6262 23.4439 15.943 20.5775 17.6071 17.8798C19.2729 15.182 21.286 12.6528 23.6464 10.2923C27.3557 6.58287 31.5918 3.81091 36.3548 1.97643C41.1178 0.143641 45.5647 -0.414458 49.6955 0.302135C50.412 4.43309 49.8641 8.88018 48.0516 13.6434C46.2391 18.4067 43.4783 22.643 39.769 26.3524C37.4507 28.6708 34.9217 30.684 32.1819 32.392C29.4421 34.0984 26.5548 35.4363 23.52 36.4058L13.6568 26.4789ZM31.1071 18.8914C32.0765 19.8609 33.2677 20.3457 34.6806 20.3457C36.0918 20.3457 37.2821 19.8609 38.2516 18.8914C39.2211 17.9219 39.7058 16.7307 39.7058 15.3177C39.7058 13.9065 39.2211 12.7161 38.2516 11.7466C37.2821 10.777 36.0918 10.2923 34.6806 10.2923C33.2677 10.2923 32.0765 10.777 31.1071 11.7466C30.1376 12.7161 29.6529 13.9065 29.6529 15.3177C29.6529 16.7307 30.1376 17.9219 31.1071 18.8914ZM29.3368 49.3045L25.2903 40.0098C28.4095 38.7874 31.0759 37.5228 33.2896 36.2161C35.5017 34.9094 37.9565 33.1179 40.6542 30.8417L41.2864 34.1296C41.455 34.9726 41.4129 35.8056 41.16 36.6284C40.9071 37.4495 40.4856 38.1551 39.8955 38.7453L29.3368 49.3045ZM4.74193 34.5722C6.2172 33.0968 8.0086 32.3482 10.1161 32.3263C12.2237 32.306 14.015 33.0336 15.4903 34.5089C16.9656 35.9843 17.7032 37.7758 17.7032 39.8834C17.7032 41.991 16.9656 43.7825 15.4903 45.2578C14.4366 46.3117 12.6772 47.2179 10.2122 47.9767C7.74558 48.7354 4.3415 49.4099 0 50C0.590107 45.6583 1.26452 42.265 2.02322 39.8202C2.78193 37.3753 3.68817 35.626 4.74193 34.5722Z" fill="white"/>
</svg>
