<svg xmlns="http://www.w3.org/2000/svg" xmlns:xlink="http://www.w3.org/1999/xlink" width="239" height="87"><defs><path id="a" d="M0 0h239v87H0z"/></defs><g fill="#005aaa" fill-rule="evenodd"><mask id="b" fill="#005aaa"><use xlink:href="#a"/></mask><path fill="#005aaa" d="M110.271 70.238l2.978-7.663h2.548l-1.375 3.514 5.17-3.514h3.026l-5.734 3.762 2.986 3.9h-3.028l-2.59-3.679-1.433 3.68h-2.548zm20.371-7.663l1.334 7.663h-2.607l-.819-5.535-4.66 5.535h-2.877l6.755-7.663h2.874zm6.015 0h2.546l-1.875 4.825 6.608-4.825h2.548l-2.977 7.663h-2.55l1.876-4.828-6.607 4.828h-2.548l2.979-7.663zm12.468 0h3.697l.713 5.313 4.786-5.313h3.698l-2.976 7.663h-2.55l2.128-5.49-4.965 5.49h-2.123l-.71-5.49-2.127 5.49h-2.55l2.98-7.663zm26.132 0l-2.978 7.663h-2.338l.17-.455h-.04c-.833.569-2.115.707-2.958.707-1.397 0-2.504-.377-3.211-.86-.728-.499-1.486-1.369-1.309-2.864.187-1.576 1.219-2.684 2.254-3.334.953-.594 2.354-1.107 4.194-1.107 2.355 0 3.162.788 3.479 1.19h.037l.362-.94h2.338zm-6.41 1.382c-2.28 0-3.537 1.37-3.697 2.74-.155 1.3.798 2.158 2.484 2.158 1.973 0 3.537-1.067 3.728-2.684.16-1.356-.812-2.214-2.515-2.214zm8.207-1.382h7.645l-.632 1.631h-2.551l-2.343 6.032h-2.548l2.344-6.032h-2.549l.634-1.63zm14.014-.25c1.418 0 2.694.221 3.675.996.824.652 1.218 1.52 1.083 2.658-.157 1.341-.99 2.531-2.196 3.332-1.477.985-3.13 1.179-4.373 1.179-1.4 0-2.696-.221-3.694-.998-.983-.76-1.217-1.717-1.1-2.683.155-1.316.968-2.506 2.193-3.308 1.475-.97 3.11-1.176 4.412-1.176zm-.328 1.632c-1.149 0-1.976.346-2.543.761a2.834 2.834 0 00-1.174 1.978c-.084.704.166 1.192.474 1.494.395.402 1.051.665 2.049.665 1.149 0 1.977-.345 2.543-.761a2.826 2.826 0 001.174-1.979c.082-.705-.168-1.19-.476-1.492-.392-.403-1.05-.666-2.047-.666zm8.649-1.382h3.698l.712 5.313 4.786-5.313h3.698l-2.977 7.663h-2.549l2.127-5.49-4.964 5.49h-2.125l-.709-5.49-2.126 5.49h-2.548l2.977-7.663zm-75.987-14.893h2.964l-7.618 7.666h-3.032l1.85-1.803-1.95-5.863h2.998l1.155 3.87 3.633-3.87zm4.309 0h9.039l-2.97 7.664h-2.542l2.338-6.03h-3.956l-2.338 6.03h-2.54l2.969-7.664zm11.116 7.666h-2.616l3.02-7.706h4.147c6.383 0 3.987 5.577-1.606 5.577h-2.121l-.824 2.129zm2.335-5.935l-.806 2.035h1.951c2.445 0 3.258-2.035.536-2.035h-1.681zm19.208-1.73l-2.972 7.663h-2.332l.17-.455h-.04c-.83.57-2.109.71-2.95.71-1.394 0-2.498-.38-3.205-.862-.721-.5-1.481-1.37-1.302-2.863.186-1.579 1.215-2.684 2.247-3.334.95-.595 2.348-1.109 4.182-1.109 2.352 0 3.155.79 3.471 1.19h.037l.36-.94h2.334zm-6.395 1.383c-2.276 0-3.525 1.37-3.687 2.739-.152 1.3.796 2.158 2.478 2.158 1.968 0 3.525-1.065 3.718-2.684.16-1.355-.808-2.213-2.509-2.213zm8.278-1.384h4.145c.747 0 1.752.056 2.366.542.333.262.547.69.482 1.243-.056.47-.332.885-.835 1.247a3.881 3.881 0 01-1.486.607c1.01.193 1.468.844 1.376 1.62-.117.982-.89 1.563-1.562 1.881-1.01.483-2.088.524-2.812.524h-4.643l2.969-7.664zm1.937 1.578l-.498 1.274h1.722c.285 0 .534 0 .821-.168a.745.745 0 00.414-.567.394.394 0 00-.168-.372c-.21-.167-.496-.167-.686-.167h-1.605zm-1.123 2.85l-.636 1.66h1.835c.267 0 .597-.027.94-.18.403-.179.603-.415.645-.774a.512.512 0 00-.21-.498c-.278-.223-.625-.209-.89-.209h-1.684zm15.005-4.428l1.331 7.664h-2.599l-.818-5.533-4.649 5.533h-2.868l6.737-7.664h2.866zm13.768 4.65h-8.389c-.01.235.07.704.631 1.12.442.319 1.066.511 1.928.511.65 0 1.162-.124 1.542-.263.46-.178.75-.387.945-.565h2.866c-.727.982-1.725 1.507-2.05 1.672-.955.472-2.235.793-3.897.793-1.205 0-2.462-.181-3.492-1.027-.537-.456-1.262-1.286-1.102-2.63.165-1.397 1.051-2.587 2.231-3.348 1.427-.926 3.023-1.162 4.474-1.162 1.204 0 2.6.154 3.626 1.01.678.568 1.148 1.467.998 2.727a4.45 4.45 0 01-.31 1.162zm-7.966-1.634h5.79a1.524 1.524 0 00-.645-1.176c-.246-.18-.786-.456-1.761-.456-.843 0-1.628.18-2.217.498-.491.264-.92.664-1.167 1.134zm11.25-3.016h2.543l-1.1 2.824h3.955l1.1-2.824h2.54l-2.97 7.664h-2.541l1.238-3.207h-3.956l-1.237 3.207h-2.542l2.97-7.664zm11.084 0h2.542l-1.872 4.828 6.593-4.828h2.541l-2.972 7.664h-2.54l1.87-4.826-6.59 4.826h-2.54l2.968-7.664zm20.796 4.65h-8.39c-.009.235.07.704.633 1.12.442.319 1.067.511 1.928.511a4.45 4.45 0 001.54-.263 2.9 2.9 0 00.945-.565h2.867c-.728.982-1.726 1.507-2.05 1.672-.955.472-2.236.793-3.897.793-1.205 0-2.464-.181-3.49-1.027-.54-.456-1.263-1.286-1.102-2.63.163-1.397 1.049-2.587 2.227-3.348 1.429-.926 3.024-1.162 4.477-1.162 1.205 0 2.6.154 3.625 1.01.68.568 1.147 1.467.998 2.727a4.39 4.39 0 01-.31 1.162zm-7.967-1.634h5.79a1.527 1.527 0 00-.643-1.176c-.247-.18-.788-.456-1.762-.456-.843 0-1.625.18-2.219.498-.49.264-.92.664-1.166 1.134zM67.943 0c28.419 7.732 46.147 17.767 46.147 32.2C114.09 56.745 67.927 82.45 0 87l13.779-38.397c16.93 1.719 100.775.148 100.775-27.305 0 0 2.048-18.351-45.716-21.272L67.943 0zm87.99 20.494c0 1.227-.67 2.255-2.014 3.087-1.341.831-2.829 1.47-5.517 1.915 2.262.386 3.43.94 4.561 1.668 1.13.725 1.696 1.621 1.696 2.688 0 1.63-.84 3.045-3.574 4.247-2.732 1.205-7 1.806-12.8 1.806-4.768 0-8.316-.018-10.929-.052l-.018.05h-8.81l7.515-20.638h8.809l-.016.048c2.195-.042 4.953-.062 8.42-.062 4.896 0 7.794.529 9.748 1.59 1.953 1.059 2.93 2.276 2.93 3.653zm-11.675 10.99c1.06-.376 1.778-1.2 1.853-1.946.096-.99-.626-1.713-1.878-2.188-1.253-.474-2.646-.454-4.181-.454h-9.262c.003.092-1.986 4.984-1.986 4.984 2.628.106 6.104.166 10.648.166 2.143 0 3.746-.186 4.806-.562zm1.623-8.19c1.253-.47 1.88-1.178 1.88-2.12 0-.695-.458-1.21-1.372-1.551-.915-.343-2.297-.514-4.15-.514-3.798 0-6.653-.012-8.775-.029l-1.792 4.922h6.908c3.614 0 6.048-.235 7.3-.707zm60.35-8.043h9.607l-2.795 7.646h13.521l2.795-7.646H239l-7.549 20.654h-9.64l3.17-8.674h-13.52l-3.173 8.674h-9.606l7.548-20.654zm-10.657 12.034h-24.388a4.842 4.842 0 00-.036.509c0 1.38.686 2.493 2.054 3.34 1.37.847 3.039 1.27 5.01 1.27 3.235 0 5.76-.947 7.57-2.844l8.724.853c-1.696 1.99-3.967 3.485-6.809 4.48-2.844.995-6.03 1.493-9.563 1.493-4.847 0-8.787-.877-11.822-2.634-3.034-1.756-4.551-4.078-4.551-6.97 0-2.823 1.368-5.338 4.105-7.542 3.73-2.98 9.054-4.47 15.971-4.47 4.41 0 7.914.78 10.514 2.34 2.603 1.558 3.9 3.74 3.9 6.548 0 1.345-.225 2.553-.679 3.627zm-8.22-3.414a6.96 6.96 0 00.034-.56c0-1.52-.596-2.658-1.79-3.418-1.197-.76-2.797-1.142-4.804-1.142-2.008 0-3.805.434-5.397 1.296-1.587.862-2.663 2.138-3.228 3.824h15.185zm-125.66 3.456c0-3.822 1.882-6.87 5.646-9.145 3.765-2.275 8.711-3.412 14.837-3.412 5.313 0 9.46.838 12.445 2.516 2.985 1.679 4.476 3.938 4.476 6.776 0 3.343-1.863 6.234-5.595 8.67-3.73 2.435-8.727 3.654-14.988 3.654-3.392 0-6.398-.389-9.02-1.166-2.623-.778-4.579-1.879-5.867-3.305-1.289-1.425-1.934-2.954-1.934-4.588zm27.778-3.98c0-1.32-.674-2.376-2.025-3.174-1.35-.795-3.09-1.193-5.223-1.193-2.111 0-3.983.372-5.615 1.115-1.634.745-2.904 1.826-3.812 3.241-.907 1.417-1.36 2.721-1.36 3.912 0 1.477.703 2.647 2.108 3.514 1.407.868 3.177 1.302 5.31 1.302 2.677 0 4.923-.655 6.737-1.961 2.589-1.851 3.88-4.103 3.88-6.756zM27 35.905h-9.512l7.654-21.135h17.135c3.577 0 6.404.243 8.486.729 2.081.484 3.729 1.288 4.943 2.407 1.216 1.119 1.615 2.256 1.615 3.438 0 1.436-.351 2.576-1.32 3.934a11.285 11.285 0 01-3.562 3.261 18.004 18.004 0 01-4.541 1.854c-1.62.42-3.412.74-6.157.96-1.598.13-4.594.194-8.98.194h-4.165L27 35.905zm3.116-8.601h.787c5.38 0 8.97-.193 10.77-.58 1.8-.383 3.219-1 4.254-1.848 1.035-.846 1.553-1.776 1.553-2.792 0-.68-.213-1.402-.745-1.837-.53-.437-1.274-.755-2.235-.955-.96-.198-3.1-.298-6.42-.298h-4.965l-2.999 8.31z" mask="url(#b)"/></g></svg>