<?xml version="1.0" encoding="utf-8"?>
<!-- Generator: Adobe Illustrator 26.3.1, SVG Export Plug-In . SVG Version: 6.00 Build 0)  -->
<svg version="1.1" id="Слой_1" xmlns="http://www.w3.org/2000/svg" xmlns:xlink="http://www.w3.org/1999/xlink" x="0px" y="0px"
	 viewBox="0 0 599 161.2" style="enable-background:new 0 0 599 161.2;" xml:space="preserve">
<style type="text/css">
	.st0{fill-rule:evenodd;clip-rule:evenodd;fill:#58595B;}
	.st1{fill:#58595B;}
</style>
<g>
	<path class="st0" d="M445,64.2v-1.9c0.3,0.1,0.6,0.1,0.9,0.1c1.5,0,2.1-1,3-2.9L443.1,48h2.4l4.4,9.2h0.1l4-9.2h2.4l-5.6,12.3
		c-1.3,2.9-2.7,4-4.7,4C445.7,64.3,445.3,64.3,445,64.2 M435.4,49.9h-4.6V48h11.9l-0.7,1.9h-4.5v14.3h-2.2L435.4,49.9z M427.4,58.1
		l-1.5-4.2c-0.5-1.4-0.7-2.1-0.9-2.7l0,0c-0.2,0.6-0.4,1.3-0.9,2.7l-1.5,4.2H427.4z M424.1,48L418,64.2h2.3l1.5-4.2h6.3l1.6,4.2h2.3
		L425.7,48H424.1z M400.6,48h2l4.4,6.6c0.7,1,1.1,1.6,1.5,2.2h0.1c0.4-0.6,0.8-1.4,1.4-2.3L414,48h2v16.2h-2.1v-10
		c0-0.8,0-1.7,0-2.5l0,0c-0.3,0.6-0.9,1.5-1.1,1.9l-3.7,6h-1.1l-4.1-6c-0.4-0.6-0.8-1.1-1.1-1.7l0,0c0,0.7,0,1.8,0,2.5v10h-2.2
		L400.6,48z M383.4,48h2.1v9.7c0,1.1,0,1.9,0,2.8h0c0.5-0.8,1.2-1.8,2.2-3l7.2-9.5h2.2v16.2h-2.2V54c0-1.2,0-1.9,0-2.7h0
		c-0.5,0.8-1.2,1.7-2.1,2.9l-7.5,9.9h-1.9L383.4,48z M366.8,64.2v-2c0.2,0,0.3,0.1,0.5,0c0.8,0,1.5-0.5,1.9-1.2
		c1.5-2.5,2.5-9.1,2.8-13h7.7v16.1h-2.2V49.8h-3.6c-0.3,3.7-1.4,9.9-3,12.5c-0.7,1.2-2,2-3.4,1.9C367.3,64.3,367.1,64.3,366.8,64.2
		 M354.8,48h2.2v7.1h1.6c2.5,0,2.7-3.3,3.8-5.5c0.4-1.1,1.4-1.7,2.6-1.7c0.4,0,0.8,0.1,1.2,0.2v2c-0.3-0.1-0.5-0.2-0.8-0.2
		c-0.5,0-1,0.3-1.2,0.8c-0.8,1.5-1.1,4.3-2.9,5.3l0,0c0.8,0.3,1.4,1.1,2,2.4l3.1,5.8h-2.5l-2.7-5.3c-0.7-1.4-1.3-1.9-1.8-1.9H357
		v7.2h-2.2V48z M345.3,56.1c0-3.7-2.1-6.4-5.6-6.4c-3.4,0-5.7,2.5-5.7,6.4s2.2,6.4,5.7,6.4S345.3,60,345.3,56.1 M331.7,56.1
		c0-4.9,3.4-8.3,8-8.3s7.9,3.5,7.9,8.3c0,5-3.4,8.2-7.9,8.2S331.7,61.1,331.7,56.1 M316.7,48h12.1v16.1h-2.2V49.9h-7.8v14.3h-2.1V48
		z M403.4,15.1h1.8c0.1,1.1,1.1,2,2.2,1.9c1-0.1,1.8-0.9,1.9-1.9h1.9c0,2.1-1.4,3.6-3.9,3.6S403.3,17.2,403.4,15.1 M400.5,19.7h2.1
		v9.7c0,1.1,0,1.9,0,2.8h0c0.5-0.8,1.2-1.8,2.2-3l7.2-9.5h2.1v16.1h-2.2V25.7c0-1.2,0-1.9,0-2.7h0c-0.5,0.8-1.2,1.7-2.1,2.9
		l-7.5,9.9h-1.9L400.5,19.7z M394.7,19.7h2.2v16.1h-2.2V19.7z M386.6,34c2.6,0,3.9-1,3.9-3.1c0.1-1.1-0.4-2.1-1.4-2.6
		c-0.9-0.4-1.9-0.6-2.8-0.5h-1.1V34H386.6z M383.1,19.7h2.2V26h1c1.4-0.1,2.8,0.2,4.1,0.8c1.5,0.7,2.5,2.3,2.4,4.1
		c0,2.9-1.7,4.9-6.2,4.9H383L383.1,19.7z M366.6,19.7h2.2v7h8.5v-7h2.1v16.1h-2.1v-7.3h-8.5v7.3h-2.2V19.7z M358.2,34
		c2.1,0,3.4-0.8,3.4-2.8c0-1.7-1.2-2.7-3.2-2.7H356V34H358.2z M357.6,26.7c2,0,3-1,3-2.6s-0.9-2.6-3-2.6H356v5.2H357.6z M353.8,19.7
		h4.1c3.4,0,5,1.9,5,4.1c0.1,1.5-0.8,2.8-2.1,3.4v0.1c1.8,0.4,3.2,2,3.1,3.9c0,2.6-1.9,4.6-5.5,4.6h-4.5L353.8,19.7z M347.2,29.8
		l-1.5-4.2c-0.5-1.4-0.7-2.1-0.9-2.7h0c-0.2,0.6-0.4,1.3-0.9,2.7l-1.5,4.2L347.2,29.8z M344,19.6h1.6l6.3,16.2h-2.4l-1.6-4.2h-6.3
		l-1.5,4.2h-2.3L344,19.6z M323,35.9v-2c0.2,0,0.3,0,0.5,0c0.8,0,1.5-0.5,1.9-1.2c1.5-2.5,2.5-9.1,2.8-13h7.7v16.1h-2.2V21.5h-3.6
		c-0.3,3.7-1.4,9.9-3,12.5c-0.7,1.2-2,2-3.4,1.9C323.5,35.9,323.3,35.9,323,35.9 M316.7,19.7v16.1h2.1V21.5h5.6l0.7-1.9L316.7,19.7z
		"/>
	<path class="st1" d="M84.2,90c6.1-7.2,7.2-15.4,7.2-21.8v-3.3c0-23.3-19.3-30.1-42.3-30.1H0v96c0,16.8,14,30.4,31.2,30.4h28.3
		c38.3,0,41.9-27.9,41.9-38.7v-5.7C101.4,106.1,98.1,95.7,84.2,90 M27.9,57h21.1c6.1,0,13.6,2.2,13.6,12.9c0,9.3-7.5,10.4-13.6,10.4
		H27.9V57z M58,135.1H38c-6.5,0-10.4-3.9-10.4-10v-21.2H58c4.3,0,14.7,2.9,14.7,16.5S62.3,135.1,58,135.1"/>
	<path class="st1" d="M160.4,69.5c-27.9,0-45.9,19-45.9,43v9c0,30.8,25.1,39.8,43,39.8h46.9v-50.9C204.5,86.4,184.1,69.5,160.4,69.5
		 M176.9,135.1h-16.5c-15.4,0-17.6-10-17.6-15.4v-9.3c0-8.2,7.9-14.3,16.1-14.3c10,0,17.9,6.1,17.9,14.3V135.1z"/>
	<path class="st1" d="M374.7,73.8v61.3h-14c-15.4,0-15.4-7.5-15.4-12.9V73.8H317v48.4c0,30.8,22.9,39.1,40.9,39.1h45.5V73.8H374.7z"
		/>
	<path class="st1" d="M266.9,91.8v56c0,7.4,6,13.5,13.5,13.5h17.5V0.3l-31,15.2L266.9,91.8z"/>
	<path class="st1" d="M203.4,56c15.1-2.2,20.4,3.3,20.5,16.2V147c0,7.9,6.4,14.3,14.3,14.3h14.5V22.4l-49.3,23.5V56z"/>
	<path class="st1" d="M491.4,28.1c2.8-3.3,4.6-6.7,4.6-10.2c0-6.1-5-11-11.1-11s-11,5-11,11.1h-7.1c0-10,8.1-18.2,18.2-18.2
		c10,0,18.2,8.1,18.2,18.2c0,3.5-0.4,7.6-5.6,14.1l-21,25.6h28.2v6.6h-43L491.4,28.1z"/>
	<path class="st1" d="M512.6,32.8c0-7.6,0-10.5,0.3-13.4c1-11.7,11.4-20.3,23.1-19.3c10.2,0.9,18.3,9,19.3,19.3
		c0.3,3,0.3,5.9,0.3,13.4s0,10.5-0.3,13.5c-1,11.7-11.4,20.3-23.1,19.3c-10.2-0.9-18.3-9-19.3-19.3
		C512.6,43.3,512.6,40.3,512.6,32.8 M534,58.8c7.4,0,13.7-5.6,14.3-13c0.3-2.6,0.3-5.7,0.3-13.1s0-10.4-0.3-13
		c-0.8-7.9-7.9-13.7-15.8-12.9c-6.8,0.7-12.2,6.1-12.9,12.9c-0.3,2.6-0.3,5.6-0.3,13s0,10.5,0.3,13.1
		C520.3,53.2,526.6,58.9,534,58.8"/>
	<path class="st1" d="M573.4,47.4v16.1h-2.1V49.1h-5.3V54c0,3.5-0.1,7.4-2.4,8.9c-0.7,0.5-1.6,0.7-2.5,0.8l-0.3-1.7
		c0.6-0.1,1.2-0.4,1.7-0.9c1.3-1.3,1.4-4.4,1.4-7v-6.8H573.4z"/>
	<polygon class="st1" points="585.3,55.9 579.1,55.9 579.1,61.7 586,61.7 586,63.5 577,63.5 577,47.4 585.7,47.4 585.7,49.1 
		579.1,49.1 579.1,54.2 585.3,54.2 	"/>
	<polygon class="st1" points="591.9,49.1 587,49.1 587,47.4 599,47.4 599,49.1 594,49.1 594,63.5 591.9,63.5 	"/>
</g>
</svg>
