<svg width="160" height="160" xmlns="http://www.w3.org/2000/svg" xmlns:xlink="http://www.w3.org/1999/xlink">
 <style type="text/css">.st0{fill:#241916;}
	.st1{fill:#E30518;}
	.st2{clip-path:url(#SVGID_2_);fill:url(#SVGID_3_);}
	.st3{clip-path:url(#SVGID_5_);fill:url(#SVGID_6_);}
	.st4{clip-path:url(#SVGID_8_);fill:url(#SVGID_9_);}
	.st5{clip-path:url(#SVGID_11_);fill:url(#SVGID_12_);}
	.st6{clip-path:url(#SVGID_14_);fill:url(#SVGID_15_);}</style>
 <g>
  <title>background</title>
  <rect fill="none" id="canvas_background" height="162" width="162" y="-1" x="-1"/>
 </g>
 <g>
  <title>Layer 1</title>
  <g id="svg_1">
   <g id="svg_2">
    <g id="svg_3">
     <g id="svg_4">
      <g id="svg_5">
       <g id="svg_6">
        <g id="svg_7">
         <defs transform="translate(0,2.277423858642578) translate(2.5250015258789062,0) translate(-349,0) ">
          <path d="m457.6,139.6c-1.3,-0.4 -2.2,-1 -2.9,-2s-1.1,-2.1 -1.1,-3.4c0,-1.4 0.4,-2.9 1.1,-4.3s1.7,-3 2.9,-4.4c1.2,-1.5 2.7,-2.8 4.2,-4c1.6,-1.2 3.3,-2.3 5.2,-3.1c1.9,-0.8 3.6,-1.4 5.2,-1.7c1.6,-0.3 3,-0.2 4.3,0.1c1.3,0.3 2.4,1 3,1.8c0.8,0.9 1.2,2.1 1.3,3.3c0.1,1.4 -0.3,2.9 -0.9,4.4s-1.7,3 -2.9,4.6c-1.2,1.5 -2.8,2.9 -4.3,4.2c-1.7,1.3 -3.4,2.4 -5.4,3.2c-1.9,0.9 -3.7,1.4 -5.4,1.6c-0.6,0.1 -1.2,0.1 -1.7,0.1c-0.8,0 -1.7,-0.1 -2.6,-0.4m21.8,-39.5c-1.5,0 -3,0.1 -4.8,0.4c-3.3,0.6 -7,1.7 -10.7,3.4c-3.7,1.8 -7.3,3.9 -10.5,6.4c-3.2,2.6 -6.2,5.3 -8.7,8.2c-2.5,2.9 -4.5,6 -6,9c-1.5,3 -2.4,6.1 -2.5,9s0.6,5.4 1.9,7.3c1.3,2 3.3,3.4 5.9,4.2c2.6,0.9 5.6,1.1 9,0.7s7.2,-2.5 11.2,-4.2c4.1,-1.9 7.2,-4.4 10.8,-7.2c3.5,-2.8 6.6,-5.6 9.2,-8.8c2.6,-3.2 5.2,-5.6 6.8,-8.8c1.9,-3.8 2.8,-6.6 2.6,-9.4c-0.2,-2.9 -1.7,-5 -3.2,-6.8c-1.6,-1.7 -3.9,-2.7 -6.6,-3.2c-1.5,0 -2.9,-0.2 -4.4,-0.2c0.1,0 0,0 0,0" id="SVGID_1_"/>
         </defs>
         <clipPath transform="translate(0,2.277423858642578) translate(2.5250015258789062,0) translate(-349,0) " id="SVGID_2_">
          <use id="svg_8" xlink:href="#SVGID_1_"/>
         </clipPath>
         <rect id="svg_9" height="49.3" width="57.7" class="st2" y="102.377424" x="84.625002"/>
        </g>
       </g>
      </g>
     </g>
    </g>
    <g id="svg_10">
     <g id="svg_11">
      <g id="svg_12">
       <g id="svg_13">
        <g id="svg_14">
         <defs transform="translate(0,2.277423858642578) translate(2.5250015258789062,0) translate(-349,0) ">
          <path d="m353.6,63.2c0,-0.1 0,-0.3 0,-0.4l0,0.4zm45.2,-56.9c-3.8,1.8 -5.8,2.9 -9.3,5c-10.5,6.6 -16.8,10 -24.6,19.5c-3,3.8 -4.9,6 -7.1,10.4c-1.1,2.2 -2.4,5.8 -2.4,5.8l-0.6,4l-0.8,5.5l-0.4,4.9l-0.1,1.3c0,-0.3 0.1,-0.6 0.1,-0.9c0.1,-0.4 0.1,-0.9 0.2,-1.3s0.1,-0.9 0.3,-1.4c0.1,-0.4 0.2,-1 0.3,-1.5c1.3,-4.8 3.4,-9.9 6.8,-15.6c3.8,-6.3 6.6,-9.5 11.9,-14.6c5.2,-5 8.7,-8.8 14.9,-13.3c3.8,-2.8 13.1,-8.7 18.6,-9.4c0.4,-0.1 0.5,-0.1 0.4,-0.1c-0.6,0.1 -5.9,0.7 -8.2,1.7" id="SVGID_4_"/>
         </defs>
         <clipPath transform="translate(0,2.277423858642578) translate(2.5250015258789062,0) translate(-349,0) " id="SVGID_5_">
          <use id="svg_15" xlink:href="#SVGID_4_"/>
         </clipPath>
         <rect id="svg_16" height="58.5" width="53.5" class="st3" y="6.977424" x="7.125002"/>
        </g>
       </g>
      </g>
     </g>
    </g>
    <g id="svg_17">
     <g id="svg_18">
      <g id="svg_19">
       <g id="svg_20">
        <g id="svg_21">
         <defs transform="translate(0,2.277423858642578) translate(2.5250015258789062,0) translate(-349,0) ">
          <path d="m357.3,109.6l-0.4,-0.6c0.2,0.2 0.3,0.4 0.4,0.6m108.9,-93.9c-0.3,-0.3 -0.6,-0.6 -0.9,-0.9l0.9,0.9zm-37.5,-14.5c-4.1,0.9 -6.8,1.9 -11.4,3.8s-9.4,4.4 -14.4,7.5c-6.9,4.2 -13.5,9.1 -19.6,14.5s-11.7,11 -16.5,16.9c-4.9,5.9 -9,12.1 -12.3,18c-3.2,6.1 -4.6,12.1 -5.5,17.5c-0.2,1.1 0,2.1 -0.1,3c-0.1,1 0.9,7.4 2,12c0.4,2 0.7,3 1.4,5c0.8,2.3 2.4,5.6 2.4,5.6l0.8,1.5l1.5,2.4c-0.5,-0.9 -1,-1.8 -1.3,-2.8c-0.4,-1.2 -0.8,-2.6 -1,-3.9s-0.3,-2.9 -0.3,-4.3s0.1,-3.1 0.4,-4.8c0.9,-5.9 3.1,-12.3 6.5,-18.8c3.2,-6.4 7.7,-12.8 12.8,-19.1c5,-6.2 10.8,-12.3 17.2,-17.8c6.3,-5.5 13.3,-10.7 20.5,-15c5.9,-3.5 11.5,-6.4 17,-8.5c5.4,-2.1 10.5,-3.4 15.2,-4.1c4.8,-0.6 9,-0.5 12.8,0.4c3.3,0.8 6.2,2.4 8.4,4.5l-3.1,-3.2l-4.2,-3.8l-2.2,-1.7l-4.8,-2c-2.7,-0.8 -5.9,-2.1 -9.4,-2.6c-2.2,-0.3 -5.1,-0.7 -8.1,-0.7c-1.6,0.1 -3.2,0.2 -4.7,0.5" id="SVGID_7_"/>
         </defs>
         <clipPath transform="translate(0,2.277423858642578) translate(2.5250015258789062,0) translate(-349,0) " id="SVGID_8_">
          <use id="svg_22" xlink:href="#SVGID_7_"/>
         </clipPath>
         <rect id="svg_23" height="108.7" width="117.2" class="st4" y="3.077424" x="2.525002"/>
        </g>
       </g>
      </g>
     </g>
    </g>
    <g id="svg_24">
     <g id="svg_25">
      <g id="svg_26">
       <g id="svg_27">
        <g id="svg_28">
         <defs transform="translate(0,2.277423858642578) translate(2.5250015258789062,0) translate(-349,0) ">
          <path d="m390.9,140.3l-1.8,-0.6c0.6,0.3 1.2,0.4 1.8,0.6m65,-123c-5.5,0.6 -11.6,2.2 -18.1,4.7c-6.3,2.6 -13,6 -19.9,10.5c-7.7,4.9 -14.7,10.7 -21.2,16.8s-12.4,12.8 -17.4,19.6s-9.2,13.9 -12.2,20.6c-3,7 -4.9,13.8 -5.3,20.1c-0.1,2.4 -0.1,4.5 0.3,6.6c0.3,2.1 0.8,3.9 1.5,5.7s1.7,3.3 2.8,4.7c1.1,1.4 2.5,2.7 3.9,3.6l5.2,3.2l4.9,2.7l5.5,2.4l3.1,1.2c-1.7,-0.7 -3.1,-1.5 -4.5,-2.6c-1.9,-1.3 -3.3,-2.9 -4.5,-4.8s-2.1,-4 -2.8,-6.4c-0.6,-2.4 -0.8,-5 -0.8,-7.9c0.2,-5.9 1.8,-12.3 4.5,-18.8c2.8,-6.4 6.5,-13 11.2,-19.4c4.6,-6.3 10,-12.6 16,-18.3c6.1,-5.7 12.8,-11 19.9,-15.6c7.2,-4.5 14.1,-8 20.6,-10.2c6.6,-2.4 15.3,-3.9 20.9,-3.9c5.6,0.1 10.5,1.3 14.4,3.8c3.9,2.6 4.7,7 6,12.3l2.1,-0.4l-6.7,-17.5l-1.7,-3.8c-2.3,-3.8 -6.1,-6.4 -10.4,-8c-2.6,-1 -6.3,-1.3 -10,-1.3c-2.4,0.1 -5.1,0.2 -7.3,0.4" id="SVGID_10_"/>
         </defs>
         <clipPath transform="translate(0,2.277423858642578) translate(2.5250015258789062,0) translate(-349,0) " id="SVGID_11_">
          <use id="svg_29" xlink:href="#SVGID_10_"/>
         </clipPath>
         <rect id="svg_30" height="123.4" width="130.4" class="st5" y="19.277424" x="15.225002"/>
        </g>
       </g>
      </g>
     </g>
    </g>
    <g id="svg_31">
     <g id="svg_32">
      <g id="svg_33">
       <g id="svg_34">
        <g id="svg_35">
         <defs transform="translate(0,2.277423858642578) translate(2.5250015258789062,0) translate(-349,0) ">
          <path d="m447.4,147.8l-3,1.2c1.3,-0.4 2.7,-1 4,-1.5l-1,0.3zm13.3,-92.2c-6.4,2.2 -13.2,5.4 -20.2,9.6c-7,4.3 -13.4,9.2 -19.2,14.7c-5.8,5.5 -11,11.2 -15.2,17.2c-4.3,6 -7.9,12.2 -10.3,18.2c-2.5,6.1 -3.8,12.1 -3.7,17.5c0.1,3.4 0.6,6.4 1.7,9c1.2,2.7 2.8,4.9 4.8,6.7c2.1,1.9 4.5,3.3 7.6,3.9c3,0.7 6.1,1.2 10.1,1.4l0.8,0l5.8,-0.4l5.7,-0.7l2.9,-0.5l5.2,-1.2l5,-1.5l1.4,-0.4l1.5,-0.6c-3.8,1.3 -7.4,2.1 -10.7,2.4c-4.4,0.4 -8.4,0 -11.7,-1.2c-3.2,-1.2 -5.9,-3 -7.8,-5.7c-1.9,-2.6 -2.9,-5.9 -3,-9.7c-0.2,-4.3 0.8,-9.1 2.6,-14.1c1.9,-4.8 4.5,-9.8 8.1,-14.6c3.4,-4.8 7.6,-9.5 12.2,-13.9c4.7,-4.3 9.8,-8.4 15.4,-11.7c5.6,-3.4 11.1,-5.9 16.3,-7.5c5.2,-1.7 10.1,-2.4 14.5,-2.1c4.3,0.3 8.2,1.4 11.1,3.5c2.9,2.2 5.1,5.3 6.1,9.4c0.4,-1.3 3.2,-2.2 3.6,-3.5c0.4,-1.4 0.7,-2.6 1,-3.9s1.1,-8.6 1.2,-9.8c-0.3,-0.8 -0.2,-1.5 -0.6,-2.3c-2,-3.7 -3.9,-5.1 -7.3,-7.3c-3.7,-2.6 -10.8,-4.1 -16.3,-4.3c-0.3,0 -0.5,0 -0.8,0c-5.8,0.2 -11.6,1.2 -17.8,3.4" id="SVGID_13_"/>
         </defs>
         <clipPath transform="translate(0,2.277423858642578) translate(2.5250015258789062,0) translate(-349,0) " id="SVGID_14_">
          <use id="svg_36" xlink:href="#SVGID_13_"/>
         </clipPath>
         <rect id="svg_37" height="101.7" width="110.9" class="st6" y="54.677424" x="45.525002"/>
        </g>
       </g>
      </g>
     </g>
    </g>
    <g id="svg_38">
     <path id="svg_39" d="m86.925002,12.677424c-0.8,2.5 -2.5,5.2 -4.8,7.9c-2.5,2.8 -5.7,5.5 -9.4,8.1c-3.8,2.7 -8.1,5.1 -12.6,7.3s-9.3,3.9 -14.2,5.4c-4.8,1.3 -9,2.1 -12.8,2.2c-3.6,0.1 -6.7,-0.3 -9,-1.2s-3.8,-2.2 -4.4,-4s-0.5,-3.9 0.6,-6.4c0.3,-0.8 0.8,-1.5 1.3,-2.3s1,-1.6 1.7,-2.4c0.7,-0.8 1.3,-1.6 2.1,-2.4c0.8,-0.8 1.5,-1.6 2.4,-2.4l2.3,-2.1c3.3,-2.8 7,-5.2 10.7,-7.5l2.1,-1.2c0,0 -4.1,3.1 -6.1,5.7c-1.2,1.5 -2.1,2.7 -2.6,3.9c-0.5,1.2 -0.6,2.3 -0.2,3c0.4,0.8 1.2,1.5 2.4,1.9c1.2,0.4 2.8,0.6 4.5,0.4c1.9,-0.1 3.9,-0.5 6.3,-1.2s4.7,-1.6 6.9,-2.7c2.2,-1.1 4.3,-2.3 6.1,-3.5c1.9,-1.3 3.4,-2.6 4.7,-3.9c1.3,-1.3 2.2,-2.7 2.6,-3.8c0.4,-1.2 0.4,-2.2 -0.1,-3s-1.4,-1.3 -2.6,-1.7c-1.2,-0.3 -2.8,-0.3 -4.5,0.1c-1.7,0.3 -3.8,0.5 -6,1.2c-1.5,0.4 -2.3,0.8 -3.6,1.4c4.2,-2.2 6.8,-3.2 11.4,-4.7c2.9,-1 5,-1.5 7.7,-2c3.1,-0.6 5.8,-0.5 8.2,-0.3c2.4,0.2 4.5,0.7 6.1,1.5s2.8,1.9 3.3,3.2c0,1.8 0.1,3.5 -0.5,5.5" class="st1"/>
     <path id="svg_40" d="m146.325002,118.377424c0,0 -1.1,2.9 -2.1,4.5c-0.9,1.6 -2.6,3.8 -2.6,3.8s-0.6,0.8 -1,1.3c-1.1,1.4 -2.9,3.4 -2.9,3.4l-2.4,2.6c-2.5,2.6 -5.2,4.9 -8.3,7.3c-3,2.3 -6.4,4.4 -9.9,6.4s-7.3,3.6 -11.2,5.1c-3.8,1.5 -7.9,2.7 -11.9,3.4c-0.8,0.2 -1.6,0.3 -2.4,0.4s-1.5,0.3 -2.3,0.4s-1.5,0.2 -2.2,0.3c-0.8,0.1 -1.5,0.1 -2.2,0.2l-4.3,0.2l-1,0l-4.7,-0.1l-4.7,-0.4c0,0 -0.8,-0.1 -1.3,-0.2c-2,-0.3 -3,-0.4 -5,-0.9c-2.1,-0.4 -5,-1.2 -5,-1.2l-2.6,-0.9l-0.7,-0.3c1.8,0.7 4.1,1.4 6.4,1.7c2.4,0.4 4.8,0.6 7.5,0.6c2.7,0.1 5.5,-0.1 8.4,-0.4c2.9,-0.3 6,-0.8 9.1,-1.5c7.3,-1.5 14.6,-3.9 21.3,-7c6.9,-3 13.3,-6.7 19.1,-10.8c5.7,-4 10.7,-8.6 14.8,-13.2c1.8,-1.5 2.9,-3 4.1,-4.7c0,-0.2 0,0 0,0" class="st1"/>
     <path id="svg_41" d="m104.425002,6.377424l5.1,1.9l5,2.4l1.8,1c1.4,0.8 2.7,1.7 3.6,2.6c1.1,1 1.9,2.1 2.6,3.3s1,2.7 1.2,4.1c0.2,1.5 0.1,3.1 -0.3,4.8c-1,4.6 -3.6,9.6 -7.7,14.6c-4.1,5.1 -9.8,10.3 -16.5,15.1c-6.8,4.9 -14.6,9.5 -22.8,13.5c-8.4,3.9 -17.1,7.3 -26,9.5c-7.9,2.1 -15,3 -21.2,3.2c-6.1,0.1 -11.3,-0.6 -15.4,-2.1c-3.9,-1.5 -7,-3.6 -8.7,-6.4s-2.2,-6.1 -1.4,-9.9l0.4,-1.7l1.5,-5.4l1.9,-5.2l1.9,-4.4l1.7,-3.6l-0.3,0.7c0.1,-0.1 -0.1,0.1 -0.1,0.1c-1.7,3.6 -2,6.8 -1.2,9.3c0.9,2.7 2.9,4.8 6.1,6.2c3.2,1.5 7.6,2.2 12.8,2.1c5.3,-0.1 11.5,-1 18.6,-2.9c7.1,-2 14.1,-4.5 20.6,-7.7c6.6,-3.1 12.8,-6.8 18.3,-10.7c5.4,-3.8 9.9,-7.9 13.4,-11.9c3.4,-3.9 5.7,-7.9 6.6,-11.5c0.4,-1.9 0.5,-3.5 0.3,-5c-0.3,-1.5 -1,-2.9 -1.9,-3.9c-0.9,-1.1 -2.2,-2.1 -3.7,-2.9c-1,-0.5 -2.2,-1 -3.4,-1.3l-1.9,-0.5c0.8,0.1 1.3,0.2 1.9,0.4c0,0 1.9,0.4 3,0.8c1.8,0.5 4.2,1.4 4.2,1.4" class="st1"/>
     <path id="svg_42" d="m138.525002,29.177424l3.8,4.8l3.4,5.1l1.5,2.6c0.4,0.8 0.9,1.7 1.2,2.6c0.3,0.9 0.6,1.9 0.8,2.8c0.2,1 0.3,2.1 0.3,3c0,1.1 -0.1,2.2 -0.2,3.2c-0.8,5.9 -3.6,12.1 -8.4,18.5s-11.4,13 -19.3,19c-8.1,6.1 -17.3,11.8 -27.2,16.6c-10,4.8 -20.7,8.7 -31.4,11.2c-7.7,1.8 -14.7,2.8 -21,3c-6.3,0.3 -11.9,-0.3 -16.7,-1.4c-4.7,-1.2 -8.7,-2.9 -11.7,-5.1c-2.9,-2.2 -5.1,-5 -6.3,-8.2l-1.2,-3.4l-1.7,-5.9l-1.2,-6l-0.3,-1.7l-0.3,-3.3c-0.1,-0.3 0,0 0,0c0.4,3.2 1.8,6 3.9,8.4c2.5,2.7 6.1,4.7 10.6,6c4.6,1.4 10.2,2.1 16.6,1.8c6.6,-0.2 14,-1.3 21.9,-3.2c10.1,-2.5 20.2,-6.2 29.6,-10.7s18.3,-9.8 25.9,-15.5c7.5,-5.7 13.9,-11.7 18.4,-17.6s7.4,-11.6 8.3,-17c0.3,-1.5 0.3,-2.9 0.3,-4.3c-0.1,-1.3 -0.3,-2.6 -0.7,-3.8c-0.4,-1.2 -0.9,-2.3 -1.6,-3.3c-0.4,-0.6 -0.9,-1.2 -1.4,-1.9l0,0l3.1,3.3l1,0.4z" class="st1"/>
     <path id="svg_43" d="m157.125002,73.677424c0.4,4.8 0.6,7.7 -0.2,12.4c-1.2,7.4 -3.1,11.7 -7.3,17.8c-4.2,6.1 -10.1,12.3 -17.2,17.9c-7.2,5.7 -15.4,10.9 -24.6,15.2c-9,4.3 -18.7,7.8 -28.4,9.8c-5,1.1 -9.8,1.8 -14.4,2.1c-4.5,0.3 -8.7,0.3 -12.4,-0.1c-3.8,-0.4 -7.2,-1.2 -10.3,-2.2c-3,-1 -5.7,-2.4 -7.9,-3.9l-4.7,-3.6l-3.9,-3.5c0,0 -2.7,-2.6 -4.2,-4.4c-1.2,-1.3 -2.8,-3.4 -2.8,-3.4c-0.3,-0.3 0,0 0,0c1.9,2.1 4,3.8 6.8,5.3c3.2,1.7 7.2,3 11.6,3.8c4.5,0.8 9.6,1.1 15.2,0.8c5.7,-0.3 11.9,-1.2 18.4,-2.6c10.5,-2.4 21,-6.1 31,-10.8c9.8,-4.7 19,-10.3 26.7,-16.5c7.7,-6.1 14.2,-12.6 18.8,-19.2c4.5,-6.4 7.3,-12.8 8,-18.8c0.1,-0.6 0.1,-1.3 0.1,-1.9s-0.1,-1.3 -0.1,-1.9c-0.1,-0.6 0.8,2.8 0.8,2.8s0.8,3.1 1,4.9" class="st1"/>
    </g>
   </g>
  </g>
 </g>
</svg>