<?xml version="1.0" encoding="utf-8"?>
<!-- Generator: Adobe Illustrator 23.0.3, SVG Export Plug-In . SVG Version: 6.00 Build 0)  -->
<svg version="1.1" id="Слой_1" xmlns="http://www.w3.org/2000/svg" xmlns:xlink="http://www.w3.org/1999/xlink" x="0px" y="0px"
	 viewBox="0 0 150 60" style="enable-background:new 0 0 150 60;" xml:space="preserve">
<style type="text/css">
	.st0{fill:#003F4E;}
	.st1{fill:#00CCFF;}
	.st2{enable-background:new    ;}
</style>
<g>
	<g>
		<polygon class="st0" points="118,1.3 118,19.6 102.4,1.3 93,1.3 93,37.3 103,37.3 103,18.1 118.9,37.3 128,37.3 128,1.3 		"/>
		<path class="st0" d="M69.9,27.3c-4.6,0-8.2-3.7-8.2-8.2s3.7-8.2,8.2-8.2c4.6,0,8.2,3.7,8.2,8.2S74.4,27.3,69.9,27.3 M69.9,0
			C59.4,0,50.8,8.5,50.8,19.1c0,10.5,8.5,19.1,19.1,19.1c10.5,0,19.1-8.5,19.1-19.1S80.4,0,69.9,0"/>
		<rect x="36" y="1.3" class="st0" width="11" height="36"/>
		<polygon class="st0" points="0,1.3 0,11.3 11,11.3 11,37.3 21,37.3 21,11.3 31,11.3 31,1.3 		"/>
	</g>
	<path class="st1" d="M148.6,28.8c0,4.6-3.7,8.2-8.2,8.2c-4.6,0-8.2-3.7-8.2-8.2s3.7-8.2,8.2-8.2C145,20.6,148.6,24.3,148.6,28.8"/>
</g>
<g class="st2">
	<path class="st0" d="M10.9,54c0,1.2-0.3,2.1-0.9,2.8c-0.6,0.7-1.4,1-2.5,1c-1,0-1.8-0.3-2.4-1S4.2,55.2,4.2,54v-2.7
		c0-1.2,0.3-2.1,0.9-2.8s1.4-1,2.4-1s1.8,0.3,2.4,1c0.6,0.7,0.9,1.6,0.9,2.8V54H10.9z M9.5,51.2c0-0.9-0.2-1.5-0.5-2
		c-0.3-0.4-0.8-0.7-1.5-0.7c-0.6,0-1.1,0.2-1.4,0.7c-0.3,0.4-0.5,1.1-0.5,2V54c0,0.9,0.2,1.5,0.5,2s0.8,0.7,1.4,0.7S8.6,56.5,9,56
		c0.3-0.4,0.5-1.1,0.5-2V51.2z"/>
	<path class="st0" d="M17,48.6L17,48.6c1.1,0,1.9,0.4,2.6,1.1c0.7,0.8,1,1.7,1,2.9s-0.3,2.1-1,2.9c-0.7,0.7-1.5,1.1-2.5,1.1H17V58
		h-1.4v-1.4h-0.1c-1,0-1.9-0.4-2.5-1.1c-0.7-0.7-1-1.7-1-2.9s0.3-2.1,1-2.9c0.7-0.8,1.5-1.1,2.5-1.1h0.1v-1.4H17V48.6z M15.5,49.7
		c-0.7,0-1.2,0.3-1.6,0.8c-0.4,0.5-0.6,1.2-0.6,2.1c0,0.9,0.2,1.6,0.6,2.1c0.4,0.5,0.9,0.8,1.6,0.8h0.1L15.5,49.7L15.5,49.7z
		 M17,49.7v5.8h0.1c0.7,0,1.2-0.3,1.6-0.8s0.6-1.2,0.6-2.1c0-0.9-0.2-1.6-0.6-2.1C18.3,49.9,17.8,49.7,17,49.7L17,49.7z"/>
	<path class="st0" d="M27.2,47.6h1.4v9.9h-1.4v-7.3l0,0l-3.8,7.3H22v-9.9h1.4v7.2l0,0L27.2,47.6z"/>
	<path class="st0" d="M30.4,47.6h1.4v8.9h3.8v-8.9H37v8.9h1L37.9,60h-1.3v-2.4h-6.2C30.4,57.6,30.4,47.6,30.4,47.6z"/>
	<path class="st0" d="M44.6,47.6H46v9.9h-1.4v-7.3l0,0l-3.8,7.3h-1.4v-9.9h1.4v7.2l0,0L44.6,47.6z"/>
	<path class="st0" d="M52.5,55.1h-3.2l-0.7,2.5h-1.4l3.1-9.9h1.3l3,9.9h-1.4L52.5,55.1z M49.7,54h2.5L51,49.6l0,0L49.7,54z"/>
	<path class="st0" d="M62.4,47.6v9.9H61v-8.9h-2.8v3.5c0,1.9-0.2,3.3-0.6,4.1c-0.4,0.8-1.1,1.3-2,1.3h-0.3v-1.1h0.2
		c0.5,0,0.9-0.3,1.1-1c0.2-0.6,0.3-1.8,0.3-3.4v-4.6h5.5V47.6z"/>
	<path class="st0" d="M65.7,51.7h1.7c0.9,0,1.7,0.3,2.2,0.8s0.8,1.2,0.8,2.1c0,0.9-0.3,1.6-0.8,2.2c-0.5,0.5-1.3,0.8-2.2,0.8h-3.1
		v-9.9h1.4V51.7z M65.7,52.7v3.8h1.7c0.5,0,0.9-0.2,1.2-0.5c0.3-0.4,0.4-0.8,0.4-1.4c0-0.5-0.1-1-0.4-1.3s-0.7-0.5-1.2-0.5
		L65.7,52.7L65.7,52.7z"/>
	<path class="st0" d="M78.4,57.6H77v-4.4h-3.8v4.4h-1.4v-9.9h1.4v4.5H77v-4.5h1.4V57.6z"/>
	<path class="st0" d="M81.8,51.7h1.7c0.9,0,1.7,0.3,2.2,0.8s0.8,1.2,0.8,2.1c0,0.9-0.3,1.6-0.8,2.2c-0.5,0.5-1.3,0.8-2.2,0.8h-3.1
		v-9.9h1.4V51.7z M81.8,52.7v3.8h1.7c0.5,0,0.9-0.2,1.2-0.5c0.3-0.4,0.4-0.8,0.4-1.4c0-0.5-0.1-1-0.4-1.3s-0.7-0.5-1.2-0.5
		L81.8,52.7L81.8,52.7z M88.8,57.6h-1.4v-9.9h1.4V57.6z"/>
	<path class="st0" d="M95.9,47.6h1.4v9.9h-1.4v-7.3l0,0l-3.8,7.3h-1.4v-9.9h1.4v7.2l0,0L95.9,47.6z M95.9,44.8L95.9,44.8
		c0,0.6-0.1,1-0.5,1.3c-0.3,0.3-0.8,0.5-1.4,0.5s-1.1-0.2-1.4-0.5s-0.5-0.8-0.5-1.3l0,0h1c0,0.3,0.1,0.5,0.2,0.7s0.4,0.3,0.7,0.3
		s0.5-0.1,0.6-0.3s0.2-0.4,0.2-0.7H95.9z"/>
	<path class="st0" d="M108.1,54.5L108.1,54.5c0,1-0.2,1.8-0.8,2.3c-0.5,0.5-1.3,0.8-2.2,0.8c-1,0-1.8-0.3-2.3-1
		c-0.6-0.7-0.9-1.6-0.9-2.7v-2.8c0-1.2,0.3-2.1,0.9-2.8s1.3-1,2.3-1s1.7,0.3,2.2,0.8s0.8,1.3,0.8,2.3l0,0h-1.3
		c0-0.7-0.2-1.3-0.4-1.6c-0.3-0.3-0.7-0.5-1.3-0.5c-0.6,0-1,0.2-1.3,0.7s-0.5,1.1-0.5,2v2.8c0,0.9,0.2,1.5,0.5,2s0.8,0.7,1.4,0.7
		s1-0.2,1.3-0.5s0.4-0.9,0.4-1.6L108.1,54.5L108.1,54.5z"/>
	<path class="st0" d="M114.2,55.1H111l-0.7,2.5h-1.4l3.1-9.9h1.3l3,9.9h-1.4L114.2,55.1z M111.3,54h2.5l-1.2-4.3l0,0L111.3,54z"/>
	<path class="st0" d="M122.6,47.6h1.4v9.9h-1.4v-7.3l0,0l-3.8,7.3h-1.4v-9.9h1.4v7.2l0,0L122.6,47.6z M122.6,44.8L122.6,44.8
		c0,0.6-0.1,1-0.5,1.3c-0.3,0.3-0.8,0.5-1.4,0.5s-1.1-0.2-1.4-0.5s-0.5-0.8-0.5-1.3l0,0h1c0,0.3,0.1,0.5,0.2,0.7s0.4,0.3,0.7,0.3
		c0.3,0,0.5-0.1,0.6-0.3s0.2-0.4,0.2-0.7H122.6z"/>
	<path class="st0" d="M131.7,48.7h-2.6v8.9h-1.4v-8.9h-2.5v-1.1h6.5L131.7,48.7L131.7,48.7z"/>
</g>
</svg>
