<svg xmlns="http://www.w3.org/2000/svg" width="174" height="57" viewBox="0 0 174 57" fill="none"><path d="M20.2144 44.0567V40.4663C18.4118 43.2926 15.7561 44.7021 12.2473 44.7021C9.97738 44.7021 7.89289 44.079 5.98643 42.8253C4.07997 41.5716 2.61118 39.8284 1.56523 37.5807C0.519269 35.3404 0 32.7589 0 29.8436C0 27.0024 0.47476 24.4209 1.42428 22.1065C2.3738 19.792 3.79066 18.0191 5.6897 16.7802C7.58133 15.5488 9.70291 14.9331 12.047 14.9331C13.7606 14.9331 15.2888 15.2966 16.6314 16.0162C17.9741 16.7432 19.0646 17.6853 19.9028 18.8425V4.74805H24.7024V44.0567H20.2144ZM4.95531 29.851C4.95531 33.5007 5.72679 36.2232 7.26235 38.0258C8.7979 39.8358 10.6153 40.7334 12.7073 40.7334C14.814 40.7334 16.6092 39.8729 18.0854 38.1445C19.5616 36.4234 20.296 33.79 20.296 30.2516C20.296 26.357 19.5468 23.4937 18.0409 21.6688C16.5424 19.8439 14.6879 18.9315 12.4921 18.9315C10.3483 18.9315 8.5531 19.8068 7.11398 21.5575C5.67487 23.3082 4.95531 26.0752 4.95531 29.851Z" fill="black"/><path d="M50.8588 40.5474C49.071 42.0681 47.35 43.1363 45.6958 43.7669C44.0415 44.39 42.2686 44.709 40.3695 44.709C37.2391 44.709 34.8356 43.9449 33.1591 42.4168C31.4752 40.8886 30.637 38.9377 30.637 36.5565C30.637 35.1618 30.9559 33.8859 31.5865 32.7361C32.2244 31.5863 33.0553 30.659 34.079 29.9617C35.1101 29.2644 36.2673 28.7378 37.5507 28.3817C38.5002 28.1295 39.9245 27.8921 41.8383 27.6547C45.7329 27.1874 48.6037 26.6384 50.4434 25.993C50.4582 25.3328 50.473 24.91 50.473 24.732C50.473 22.7662 50.0205 21.379 49.1081 20.5778C47.8767 19.4873 46.0444 18.9384 43.6113 18.9384C41.3413 18.9384 39.6648 19.339 38.5818 20.1327C37.4987 20.9265 36.6976 22.3359 36.1783 24.3536L31.4604 23.7083C31.8906 21.6905 32.5953 20.0585 33.582 18.8123C34.5686 17.5735 35.9854 16.6165 37.8474 15.9415C39.7093 15.2739 41.8606 14.9326 44.3086 14.9326C46.7417 14.9326 48.7149 15.2219 50.2357 15.7931C51.7564 16.3643 52.8691 17.0839 53.5886 17.9518C54.3008 18.8197 54.8052 19.9176 55.0871 21.238C55.2503 22.0614 55.3319 23.5451 55.3319 25.6889V32.1278C55.3319 36.6158 55.4358 39.4495 55.6435 40.6438C55.8512 41.8307 56.2592 42.9731 56.86 44.0636H51.8157C51.3261 43.0547 50.9997 41.8901 50.8588 40.5474ZM50.4582 29.7689C48.7075 30.481 46.0815 31.0893 42.5727 31.5937C40.5921 31.883 39.1826 32.202 38.3667 32.5581C37.5432 32.9142 36.9127 33.4408 36.4602 34.1233C36.0151 34.8132 35.7926 35.5773 35.7926 36.4155C35.7926 37.7063 36.2822 38.7745 37.2539 39.635C38.2257 40.4955 39.6574 40.9183 41.5342 40.9183C43.3961 40.9183 45.043 40.5103 46.4969 39.7017C47.9435 38.8857 49.0117 37.773 49.6867 36.3636C50.206 35.2731 50.4656 33.6634 50.4656 31.5344V29.7689H50.4582Z" fill="black"/><path d="M74.2776 44.0556V15.5848H78.5949V19.5832C79.4851 18.1886 80.6794 17.0685 82.1631 16.2154C83.6467 15.3697 85.338 14.9395 87.2296 14.9395C89.3364 14.9395 91.0648 15.3771 92.4149 16.2525C93.765 17.1278 94.7145 18.3518 95.2709 19.9244C97.526 16.6011 100.456 14.9395 104.069 14.9395C106.895 14.9395 109.061 15.7258 110.582 17.2836C112.103 18.8488 112.859 21.2597 112.859 24.5088V44.0556H108.06V26.1186C108.06 24.1899 107.904 22.7952 107.592 21.9496C107.281 21.1039 106.71 20.414 105.894 19.8948C105.07 19.3755 104.106 19.1159 103.001 19.1159C100.998 19.1159 99.336 19.7835 98.0156 21.1113C96.6952 22.4466 96.035 24.5756 96.035 27.5058V44.0482H91.2058V25.5548C91.2058 23.411 90.8126 21.8012 90.0263 20.7256C89.24 19.65 87.9492 19.1159 86.1614 19.1159C84.8039 19.1159 83.5502 19.4719 82.393 20.1915C81.2432 20.9036 80.405 21.9496 79.8857 23.3294C79.3664 24.7091 79.1068 26.6898 79.1068 29.2787V44.0556H74.2776Z" fill="black"/><path d="M138.6 40.5474C136.812 42.0681 135.091 43.1363 133.437 43.7669C131.783 44.39 130.01 44.709 128.111 44.709C124.981 44.709 122.577 43.9449 120.901 42.4168C119.217 40.8886 118.378 38.9377 118.378 36.5565C118.378 35.1618 118.697 33.8859 119.328 32.7361C119.958 31.5863 120.797 30.659 121.82 29.9617C122.844 29.2644 124.009 28.7378 125.292 28.3817C126.242 28.1295 127.666 27.8921 129.58 27.6547C133.474 27.1874 136.345 26.6384 138.185 25.993C138.2 25.3328 138.214 24.91 138.214 24.732C138.214 22.7662 137.762 21.379 136.85 20.5778C135.618 19.4873 133.786 18.9384 131.353 18.9384C129.083 18.9384 127.406 19.339 126.323 20.1327C125.24 20.9265 124.439 22.3359 123.92 24.3536L119.202 23.7083C119.632 21.6905 120.337 20.0585 121.323 18.8123C122.303 17.5735 123.727 16.6165 125.589 15.9415C127.451 15.2739 129.602 14.9326 132.05 14.9326C134.483 14.9326 136.456 15.2219 137.977 15.7931C139.498 16.3643 140.611 17.0839 141.33 17.9518C142.042 18.8197 142.547 19.9176 142.829 21.238C142.992 22.0614 143.073 23.5451 143.073 25.6889V32.1278C143.073 36.6158 143.177 39.4495 143.385 40.6438C143.593 41.8307 143.993 42.9731 144.601 44.0636H139.565C139.068 43.0547 138.749 41.8901 138.6 40.5474ZM138.2 29.7689C136.449 30.481 133.823 31.0893 130.314 31.5937C128.326 31.883 126.924 32.202 126.108 32.5581C125.285 32.9142 124.647 33.4408 124.202 34.1233C123.757 34.8132 123.534 35.5773 123.534 36.4155C123.534 37.7063 124.024 38.7745 124.995 39.635C125.967 40.4955 127.399 40.9183 129.276 40.9183C131.138 40.9183 132.784 40.5103 134.238 39.7017C135.685 38.8857 136.753 37.773 137.428 36.3636C137.947 35.2731 138.207 33.6634 138.207 31.5344V29.7689H138.2Z" fill="black"/><path d="M147.346 44.0557L157.754 29.2566L148.125 15.585H154.156L158.525 22.2613C159.349 23.5298 160.009 24.5906 160.513 25.4511C161.3 24.2716 162.027 23.2256 162.687 22.3132L167.486 15.585H173.25L163.406 28.9895L174 44.0557H168.072L162.227 35.2059L160.669 32.8173L153.192 44.0483H147.346V44.0557Z" fill="black"/><path d="M59.5598 48.359C61.1176 46.1187 61.9559 43.4037 61.9559 40.6145C61.9559 40.6145 61.9633 27.796 61.9707 21.0158C61.9781 16.1866 65.4201 12.1511 69.9452 11.6689C68.3874 13.8721 67.5491 16.5427 67.5491 19.2948V38.9825C67.5491 43.8265 64.0997 47.8768 59.5598 48.359Z" fill="#668FC6"/><path d="M68.6025 1.09046C69.2849 1.81744 69.6262 2.72245 69.6262 3.81292C69.6262 4.90338 69.2849 5.80097 68.6025 6.5057C67.92 7.21042 67.0224 7.56649 65.9245 7.56649C64.8563 7.56649 63.9884 7.21042 63.3059 6.5057C62.6235 5.80097 62.2822 4.90338 62.2822 3.81292C62.2822 2.72245 62.6235 1.81744 63.3059 1.09046C63.9884 0.363488 64.8637 0 65.9245 0C67.0298 0 67.92 0.363488 68.6025 1.09046Z" fill="#668FC6"/><path d="M80.7612 56.7706H78.7583L77.9646 54.8715H74.3223L73.573 56.7706H71.6221L75.1679 48.3955H77.1115L80.7612 56.7706ZM77.3785 53.4547L76.1249 50.3465L74.8935 53.4547H77.3785Z" fill="#668FC6"/><path d="M81.6814 56.7706V48.3955H83.5211V56.7706H81.6814Z" fill="#668FC6"/><path d="M85.2791 56.7706V48.3955H89.1513C90.1231 48.3955 90.8278 48.4697 91.2729 48.6181C91.7106 48.7664 92.0666 49.0335 92.3337 49.4192C92.6007 49.8049 92.7343 50.2426 92.7343 50.7396C92.7343 51.3702 92.534 51.8894 92.1334 52.2974C91.7328 52.7054 91.132 52.9651 90.3308 53.0689C90.7314 53.2841 91.0578 53.514 91.3174 53.7737C91.577 54.0259 91.9257 54.4784 92.3634 55.1312L93.4761 56.7632H91.2803L89.9525 54.9383C89.4777 54.2855 89.1587 53.8775 88.9807 53.7069C88.8101 53.5363 88.6246 53.4176 88.4318 53.3582C88.2389 53.2915 87.9273 53.2618 87.5045 53.2618H87.1336V56.7557H85.2791V56.7706ZM87.1188 51.934H88.4763C89.359 51.934 89.908 51.8969 90.1305 51.8301C90.3531 51.7633 90.5237 51.6446 90.6424 51.474C90.7685 51.3034 90.8278 51.0957 90.8278 50.8435C90.8278 50.5616 90.7462 50.3316 90.583 50.161C90.4198 49.9904 90.1898 49.8791 89.8931 49.8346C89.7448 49.8124 89.2997 49.805 88.5504 49.805H87.1188V51.934Z" fill="#668FC6"/><path d="M97.9338 56.7706V48.3955H99.7735V56.7706H97.9338Z" fill="#668FC6"/><path d="M101.539 56.7706V48.3955H103.327L107.051 53.9888V48.3955H108.757V56.7706H106.91L103.238 51.3108V56.7706H101.539Z" fill="#668FC6"/><path d="M110.723 56.7706V48.3955H112.511L116.235 53.9888V48.3955H117.941V56.7706H116.094L112.422 51.3108V56.7706H110.723Z" fill="#668FC6"/><path d="M119.521 52.6318C119.521 51.7787 119.662 51.0591 119.936 50.4805C120.144 50.0503 120.426 49.6719 120.782 49.3307C121.138 48.9895 121.531 48.7372 121.962 48.574C122.525 48.3515 123.186 48.2402 123.927 48.2402C125.27 48.2402 126.338 48.626 127.147 49.39C127.955 50.1541 128.356 51.2223 128.356 52.5873C128.356 53.9374 127.955 54.9981 127.154 55.7622C126.353 56.5263 125.285 56.9046 123.95 56.9046C122.6 56.9046 121.516 56.5263 120.723 55.7622C119.914 55.013 119.521 53.967 119.521 52.6318ZM121.413 52.5724C121.413 53.5219 121.65 54.2415 122.125 54.7311C122.6 55.2207 123.208 55.4655 123.935 55.4655C124.669 55.4655 125.27 55.2207 125.737 54.7385C126.205 54.2563 126.442 53.5219 126.442 52.5502C126.442 51.5932 126.212 50.8737 125.752 50.3989C125.292 49.9241 124.684 49.6868 123.927 49.6868C123.171 49.6868 122.562 49.9241 122.095 50.4063C121.643 50.8885 121.413 51.6155 121.413 52.5724Z" fill="#668FC6"/><path d="M132.102 56.7706L128.845 48.3955H130.841L133.148 54.5971L135.373 48.3955H137.324L134.068 56.7706H132.102Z" fill="#668FC6"/><path d="M145.529 56.7706H143.526L142.732 54.8715H139.09L138.341 56.7706H136.39L139.936 48.3955H141.879L145.529 56.7706ZM142.146 53.4547L140.893 50.3465L139.661 53.4547H142.146Z" fill="#668FC6"/><path d="M147.614 56.7706V49.8124H144.914V48.3955H152.146V49.8124H149.453V56.7706H147.614Z" fill="#668FC6"/><path d="M153.274 56.7706V48.3955H155.113V56.7706H153.274Z" fill="#668FC6"/><path d="M156.493 52.6318C156.493 51.7787 156.634 51.0591 156.909 50.4805C157.116 50.0503 157.398 49.6719 157.754 49.3307C158.11 48.9895 158.503 48.7372 158.934 48.574C159.498 48.3515 160.158 48.2402 160.9 48.2402C162.242 48.2402 163.31 48.626 164.119 49.39C164.928 50.1541 165.328 51.2223 165.328 52.5873C165.328 53.9374 164.928 54.9981 164.126 55.7622C163.325 56.5263 162.257 56.9046 160.922 56.9046C159.572 56.9046 158.489 56.5263 157.695 55.7622C156.894 55.013 156.493 53.967 156.493 52.6318ZM158.385 52.5724C158.385 53.5219 158.622 54.2415 159.097 54.7311C159.572 55.2207 160.18 55.4655 160.907 55.4655C161.641 55.4655 162.242 55.2207 162.71 54.7385C163.177 54.2563 163.414 53.5219 163.414 52.5502C163.414 51.5932 163.184 50.8737 162.724 50.3989C162.264 49.9241 161.656 49.6868 160.9 49.6868C160.143 49.6868 159.535 49.9241 159.067 50.4063C158.615 50.8885 158.385 51.6155 158.385 52.5724Z" fill="#668FC6"/><path d="M166.774 56.7706V48.3955H168.562L172.286 53.9888V48.3955H173.992V56.7706H172.145L168.473 51.3108V56.7706H166.774Z" fill="#668FC6"/></svg>