<?xml version="1.0" encoding="UTF-8"?>
<!-- Generator: Adobe Illustrator 25.3.1, SVG Export Plug-In . SVG Version: 6.00 Build 0)  -->
<svg version="1.1" id="Layer_1" xmlns="http://www.w3.org/2000/svg" xmlns:xlink="http://www.w3.org/1999/xlink" x="0px" y="0px" viewBox="0 0 504.1 262.6" style="enable-background:new 0 0 504.1 262.6;" xml:space="preserve">
<style type="text/css">
	.st0{fill:#241916;}
	.st1{fill:#E30518;}
	.st2{clip-path:url(#SVGID_2_);fill:url(#SVGID_3_);}
	.st3{clip-path:url(#SVGID_5_);fill:url(#SVGID_6_);}
	.st4{clip-path:url(#SVGID_8_);fill:url(#SVGID_9_);}
	.st5{clip-path:url(#SVGID_11_);fill:url(#SVGID_12_);}
	.st6{clip-path:url(#SVGID_14_);fill:url(#SVGID_15_);}
</style>
<g>
	<path class="st0" d="M0.5,231.3H6v5.9h0.1c0.8-2.4,3.2-6.6,9-6.6v6.1c-5,0-9.2,2.6-9.2,11.6v12.5H0.4L0.5,231.3L0.5,231.3z"/>
	<path class="st0" d="M36,240.1c0-1.9-1.2-5.2-5.4-5.2c-4.6,0-5.9,3.9-5.9,5.2H36z M40.9,260.5c-2.4,0.6-4.1,1-7.4,1   c-8.9,0-14.6-5.2-14.6-16.8c0-12.6,8.3-14.1,12.1-14.1c7.2,0,10.7,4.9,10.7,11.9v1.5H24.6c0,5.5,2.8,13.3,10.8,13.3   c2.6,0,4.3-0.6,5.5-1.1V260.5z"/>
	<path class="st0" d="M58.3,257.1c4.5,0,6.4-6.3,6.4-11.2c0-5.2-1.5-11-6.4-11c-4.3,0-5.7,4.9-5.7,11.1   C52.5,250.5,53,257.1,58.3,257.1 M64.7,256.3L64.7,256.3c-0.7,1.7-3.1,5.2-8.3,5.2c-7.2,0-10.1-6.5-10.1-14.9   c0-9.8,3.7-15.9,10.4-15.9c4.9,0,7.2,3,7.9,4.8h0.1v-17.4h5.5v42.8h-5.5V256.3z"/>
	<path class="st1" d="M88.7,257.1c4.5,0,6.4-6.3,6.4-11.2c0-5.2-1.5-11-6.4-11c-4.3,0-5.7,4.9-5.7,11.1   C82.9,250.5,83.5,257.1,88.7,257.1 M95.1,256.3L95.1,256.3c-0.7,1.7-3.1,5.2-8.3,5.2c-7.2,0-10.1-6.5-10.1-14.9   c0-9.8,3.7-15.9,10.4-15.9c4.9,0,7.2,3,7.9,4.8h0.1v-17.4h5.5v42.8h-5.5V256.3z"/>
	<path class="st1" d="M120.6,257.1c6,0,6.8-6.4,6.8-11.1c0-4.8-0.8-11.1-6.8-11.1c-6.1,0-6.9,6.3-6.9,11.1   C113.7,250.8,114.5,257.1,120.6,257.1 M107.5,246c0-9.4,4.1-15.4,13.1-15.4c8.8,0,13,6,13,15.4c0,9.2-4.1,15.4-13,15.4   C111.6,261.5,107.5,255.3,107.5,246"/>
	<path class="st1" d="M156.2,261c-1.5,0.3-2.9,0.4-4.4,0.4c-7.2,0-8.8-3.1-8.8-7.2v-18.7h-5.3v-4.3h5.3v-7l5.5-3.4v10.4h8.2v4.3   h-8.2v15.8c0,2.7,0.4,5.7,4.7,5.7c1,0,2.2-0.2,2.9-0.4L156.2,261L156.2,261z"/>
	<g>
		<polygon class="st0" points="181.3,230.8 186.9,230.8 191.5,252.3 191.6,252.3 198.1,230.8 202.4,230.8 208.9,252.3 208.9,252.3     213.6,230.8 219.1,230.8 212.4,260.6 206.5,260.6 200.3,239.9 200.2,239.9 194.1,260.6 188.2,260.6   "/>
		<path class="st0" d="M227.1,260.6h5.6v-29.7h-5.6V260.6z M226.6,223.9h6.7v-6.3h-6.7V223.9z"/>
		<g>
			<path class="st0" d="M242.9,230.8h5.6v6.3h0.1c1-2.5,3.3-7.1,9.4-7.1c6.9,0,8,6.1,8,9.8v20.6h-5.6v-16.1c0-5.5,0-8.6-4-8.6     c-4.6,0-7.9,6.2-7.9,12.2v12.5h-5.6V230.8z"/>
			<path class="st0" d="M275.5,230.8h5.6v6.3h0.1c1-2.5,3.3-7.1,9.4-7.1c6.9,0,8,6.1,8,9.8v20.6H293v-16.1c0-5.5,0-8.6-4-8.6     c-4.6,0-7.9,6.2-7.9,12.2v12.5h-5.6V230.8z"/>
			<path class="st0" d="M323.3,239.7c0-1.8-1.2-5.2-5.5-5.2c-4.6,0-5.8,3.9-5.8,5.2H323.3z M328.1,260.2c-2.5,0.5-4.1,1-7.4,1     c-8.9,0-14.6-5.2-14.6-17.1c0-12.8,8.3-14.1,12.1-14.1c7.3,0,10.7,4.9,10.7,11.9v1.5h-17.2c0,5.5,2.9,13.4,11,13.4     c2.5,0,4.3-0.6,5.6-1.1L328.1,260.2L328.1,260.2z"/>
			<path class="st0" d="M336.1,230.8h5.6v6h0.1c0.8-2.4,3.3-6.7,9.1-6.7v6.1c-5,0-9.3,2.5-9.3,11.7v12.5H336L336.1,230.8     L336.1,230.8z"/>
			<path class="st0" d="M373.7,256.1c5.2-4.1,19-17.1,19-25.5c0-3.3-1.8-6-6.1-6c-4.1,0-5.8,2.7-5.8,5.5h-6.9     c0.5-4.1,2.9-9.8,12.9-9.8c6.7,0,12.3,3.8,12.3,10.8c0,11.1-11,19.4-17.7,25.1h17.8v4.4h-25.5L373.7,256.1L373.7,256.1z"/>
			<path class="st0" d="M421,256.9c7.3,0,8.3-8.8,8.3-16.1c0-7.3-1-16.1-8.3-16.1c-7.2,0-8.3,8.8-8.3,16.1     C412.7,248.1,413.7,256.9,421,256.9 M406.5,240.7c0-10.4,2.9-20.5,14.5-20.5c11.5,0,14.6,10,14.6,20.5c0,10.4-3.1,20.5-14.6,20.5     C409.4,261.3,406.5,251.3,406.5,240.7"/>
			<path class="st0" d="M442.1,256.1c5.2-4.1,19-17.1,19-25.5c0-3.3-1.8-6-6.1-6s-5.8,2.7-5.8,5.5h-6.9c0.5-4.1,2.9-9.8,12.9-9.8     c6.7,0,12.3,3.8,12.3,10.8c0,11.1-11,19.4-17.7,25.1h18v4.4h-25.5L442.1,256.1L442.1,256.1z"/>
			<path class="st0" d="M489.3,256.9c7.3,0,8.3-8.8,8.3-16.1c0-7.3-1-16.1-8.3-16.1c-7.2,0-8.3,8.8-8.3,16.1     C481.2,248.1,482.1,256.9,489.3,256.9 M475,240.7c0-10.4,2.9-20.5,14.5-20.5c11.5,0,14.6,10,14.6,20.5c0,10.4-3.1,20.5-14.6,20.5     C477.9,261.3,475,251.3,475,240.7"/>
		</g>
	</g>
	<g>
		<g>
			<g>
				<g>
					<g>
						<g>
							<defs>
								<path id="SVGID_1_" d="M457.6,139.6c-1.3-0.4-2.2-1-2.9-2s-1.1-2.1-1.1-3.4c0-1.4,0.4-2.9,1.1-4.3s1.7-3,2.9-4.4          c1.2-1.5,2.7-2.8,4.2-4c1.6-1.2,3.3-2.3,5.2-3.1c1.9-0.8,3.6-1.4,5.2-1.7c1.6-0.3,3-0.2,4.3,0.1c1.3,0.3,2.4,1,3,1.8          c0.8,0.9,1.2,2.1,1.3,3.3c0.1,1.4-0.3,2.9-0.9,4.4s-1.7,3-2.9,4.6c-1.2,1.5-2.8,2.9-4.3,4.2c-1.7,1.3-3.4,2.4-5.4,3.2          c-1.9,0.9-3.7,1.4-5.4,1.6c-0.6,0.1-1.2,0.1-1.7,0.1C459.4,140,458.5,139.9,457.6,139.6 M479.4,100.1c-1.5,0-3,0.1-4.8,0.4          c-3.3,0.6-7,1.7-10.7,3.4c-3.7,1.8-7.3,3.9-10.5,6.4c-3.2,2.6-6.2,5.3-8.7,8.2c-2.5,2.9-4.5,6-6,9c-1.5,3-2.4,6.1-2.5,9          s0.6,5.4,1.9,7.3c1.3,2,3.3,3.4,5.9,4.2c2.6,0.9,5.6,1.1,9,0.7s7.2-2.5,11.2-4.2c4.1-1.9,7.2-4.4,10.8-7.2          c3.5-2.8,6.6-5.6,9.2-8.8c2.6-3.2,5.2-5.6,6.8-8.8c1.9-3.8,2.8-6.6,2.6-9.4c-0.2-2.9-1.7-5-3.2-6.8          c-1.6-1.7-3.9-2.7-6.6-3.2C482.3,100.3,480.9,100.1,479.4,100.1C479.5,100.1,479.4,100.1,479.4,100.1"/>
							</defs>
							<clipPath id="SVGID_2_">
								<use xlink:href="#SVGID_1_" style="overflow:visible;"/>
							</clipPath>
							
								<radialGradient id="SVGID_3_" cx="576.8225" cy="886.9872" r="5.8002" gradientTransform="matrix(9.7125 0 0 -9.7125 -5129.1719 8714.9307)" gradientUnits="userSpaceOnUse">
								<stop offset="0" style="stop-color:#FFFFFF"/>
								<stop offset="1" style="stop-color:#E30518"/>
							</radialGradient>
							<rect x="436.1" y="100.1" class="st2" width="57.7" height="49.3"/>
						</g>
					</g>
				</g>
			</g>
		</g>
		<g>
			<g>
				<g>
					<g>
						<g>
							<defs>
								<path id="SVGID_4_" d="M353.6,63.2c0-0.1,0-0.3,0-0.4V63.2z M398.8,6.3c-3.8,1.8-5.8,2.9-9.3,5c-10.5,6.6-16.8,10-24.6,19.5          c-3,3.8-4.9,6-7.1,10.4c-1.1,2.2-2.4,5.8-2.4,5.8l-0.6,4l-0.8,5.5l-0.4,4.9l-0.1,1.3c0-0.3,0.1-0.6,0.1-0.9          c0.1-0.4,0.1-0.9,0.2-1.3s0.1-0.9,0.3-1.4c0.1-0.4,0.2-1,0.3-1.5c1.3-4.8,3.4-9.9,6.8-15.6c3.8-6.3,6.6-9.5,11.9-14.6          c5.2-5,8.7-8.8,14.9-13.3c3.8-2.8,13.1-8.7,18.6-9.4c0.4-0.1,0.5-0.1,0.4-0.1C406.4,4.7,401.1,5.3,398.8,6.3"/>
							</defs>
							<clipPath id="SVGID_5_">
								<use xlink:href="#SVGID_4_" style="overflow:visible;"/>
							</clipPath>
							
								<linearGradient id="SVGID_6_" gradientUnits="userSpaceOnUse" x1="606.6908" y1="765.6389" x2="612.4916" y2="765.6389" gradientTransform="matrix(0 10.0847 10.0847 0 -7340.9087 -6113.6396)">
								<stop offset="0" style="stop-color:#E30518"/>
								<stop offset="1" style="stop-color:#FFFFFF"/>
							</linearGradient>
							<rect x="353.6" y="4.7" class="st3" width="53.5" height="58.5"/>
						</g>
					</g>
				</g>
			</g>
		</g>
		<g>
			<g>
				<g>
					<g>
						<g>
							<defs>
								<path id="SVGID_7_" d="M357.3,109.6l-0.4-0.6C357.1,109.2,357.2,109.4,357.3,109.6 M466.2,15.7c-0.3-0.3-0.6-0.6-0.9-0.9          L466.2,15.7z M428.7,1.2c-4.1,0.9-6.8,1.9-11.4,3.8s-9.4,4.4-14.4,7.5c-6.9,4.2-13.5,9.1-19.6,14.5s-11.7,11-16.5,16.9          c-4.9,5.9-9,12.1-12.3,18c-3.2,6.1-4.6,12.1-5.5,17.5c-0.2,1.1,0,2.1-0.1,3c-0.1,1,0.9,7.4,2,12c0.4,2,0.7,3,1.4,5          c0.8,2.3,2.4,5.6,2.4,5.6l0.8,1.5l1.5,2.4c-0.5-0.9-1-1.8-1.3-2.8c-0.4-1.2-0.8-2.6-1-3.9s-0.3-2.9-0.3-4.3s0.1-3.1,0.4-4.8          c0.9-5.9,3.1-12.3,6.5-18.8c3.2-6.4,7.7-12.8,12.8-19.1c5-6.2,10.8-12.3,17.2-17.8c6.3-5.5,13.3-10.7,20.5-15          c5.9-3.5,11.5-6.4,17-8.5c5.4-2.1,10.5-3.4,15.2-4.1c4.8-0.6,9-0.5,12.8,0.4c3.3,0.8,6.2,2.4,8.4,4.5l-3.1-3.2l-4.2-3.8          L455.7,6l-4.8-2c-2.7-0.8-5.9-2.1-9.4-2.6c-2.2-0.3-5.1-0.7-8.1-0.7C431.8,0.8,430.2,0.9,428.7,1.2"/>
							</defs>
							<clipPath id="SVGID_8_">
								<use xlink:href="#SVGID_7_" style="overflow:visible;"/>
							</clipPath>
							
								<radialGradient id="SVGID_9_" cx="618.2668" cy="868.0765" r="5.8002" gradientTransform="matrix(22.3829 0 0 -22.3829 -13408.9189 19431.7422)" gradientUnits="userSpaceOnUse">
								<stop offset="0" style="stop-color:#FFFFFF"/>
								<stop offset="1" style="stop-color:#E30518"/>
							</radialGradient>
							<rect x="349" y="0.8" class="st4" width="117.2" height="108.7"/>
						</g>
					</g>
				</g>
			</g>
		</g>
		<g>
			<g>
				<g>
					<g>
						<g>
							<defs>
								<path id="SVGID_10_" d="M390.9,140.3l-1.8-0.6C389.7,140,390.3,140.1,390.9,140.3 M455.9,17.3c-5.5,0.6-11.6,2.2-18.1,4.7          c-6.3,2.6-13,6-19.9,10.5c-7.7,4.9-14.7,10.7-21.2,16.8s-12.4,12.8-17.4,19.6s-9.2,13.9-12.2,20.6c-3,7-4.9,13.8-5.3,20.1          c-0.1,2.4-0.1,4.5,0.3,6.6c0.3,2.1,0.8,3.9,1.5,5.7s1.7,3.3,2.8,4.7c1.1,1.4,2.5,2.7,3.9,3.6l5.2,3.2l4.9,2.7l5.5,2.4          l3.1,1.2c-1.7-0.7-3.1-1.5-4.5-2.6c-1.9-1.3-3.3-2.9-4.5-4.8s-2.1-4-2.8-6.4c-0.6-2.4-0.8-5-0.8-7.9          c0.2-5.9,1.8-12.3,4.5-18.8c2.8-6.4,6.5-13,11.2-19.4c4.6-6.3,10-12.6,16-18.3c6.1-5.7,12.8-11,19.9-15.6          c7.2-4.5,14.1-8,20.6-10.2c6.6-2.4,15.3-3.9,20.9-3.9c5.6,0.1,10.5,1.3,14.4,3.8c3.9,2.6,4.7,7,6,12.3l2.1-0.4L485.3,30          l-1.7-3.8c-2.3-3.8-6.1-6.4-10.4-8c-2.6-1-6.3-1.3-10-1.3C460.8,17,458.1,17.1,455.9,17.3"/>
							</defs>
							<clipPath id="SVGID_11_">
								<use xlink:href="#SVGID_10_" style="overflow:visible;"/>
							</clipPath>
							
								<radialGradient id="SVGID_12_" cx="621.1981" cy="866.1995" r="5.8002" gradientTransform="matrix(23.8838 0 0 -23.8838 -14385.0615 20706.0371)" gradientUnits="userSpaceOnUse">
								<stop offset="0" style="stop-color:#FFFFFF"/>
								<stop offset="1" style="stop-color:#E30518"/>
							</radialGradient>
							<rect x="361.7" y="17" class="st5" width="130.4" height="123.4"/>
						</g>
					</g>
				</g>
			</g>
		</g>
		<g>
			<g>
				<g>
					<g>
						<g>
							<defs>
								<path id="SVGID_13_" d="M447.4,147.8l-3,1.2c1.3-0.4,2.7-1,4-1.5L447.4,147.8z M460.7,55.6c-6.4,2.2-13.2,5.4-20.2,9.6          c-7,4.3-13.4,9.2-19.2,14.7c-5.8,5.5-11,11.2-15.2,17.2c-4.3,6-7.9,12.2-10.3,18.2c-2.5,6.1-3.8,12.1-3.7,17.5          c0.1,3.4,0.6,6.4,1.7,9c1.2,2.7,2.8,4.9,4.8,6.7c2.1,1.9,4.5,3.3,7.6,3.9c3,0.7,6.1,1.2,10.1,1.4h0.8l5.8-0.4l5.7-0.7          l2.9-0.5l5.2-1.2l5-1.5l1.4-0.4l1.5-0.6c-3.8,1.3-7.4,2.1-10.7,2.4c-4.4,0.4-8.4,0-11.7-1.2c-3.2-1.2-5.9-3-7.8-5.7          c-1.9-2.6-2.9-5.9-3-9.7c-0.2-4.3,0.8-9.1,2.6-14.1c1.9-4.8,4.5-9.8,8.1-14.6c3.4-4.8,7.6-9.5,12.2-13.9          c4.7-4.3,9.8-8.4,15.4-11.7c5.6-3.4,11.1-5.9,16.3-7.5c5.2-1.7,10.1-2.4,14.5-2.1c4.3,0.3,8.2,1.4,11.1,3.5          c2.9,2.2,5.1,5.3,6.1,9.4c0.4-1.3,3.2-2.2,3.6-3.5c0.4-1.4,0.7-2.6,1-3.9s1.1-8.6,1.2-9.8c-0.3-0.8-0.2-1.5-0.6-2.3          c-2-3.7-3.9-5.1-7.3-7.3c-3.7-2.6-10.8-4.1-16.3-4.3c-0.3,0-0.5,0-0.8,0C472.7,52.4,466.9,53.4,460.7,55.6"/>
							</defs>
							<clipPath id="SVGID_14_">
								<use xlink:href="#SVGID_13_" style="overflow:visible;"/>
							</clipPath>
							
								<radialGradient id="SVGID_15_" cx="616.4279" cy="868.0438" r="5.8002" gradientTransform="matrix(20.3753 0 0 -20.3753 -12091.5283 17739.8809)" gradientUnits="userSpaceOnUse">
								<stop offset="0" style="stop-color:#FFFFFF"/>
								<stop offset="1" style="stop-color:#E30518"/>
							</radialGradient>
							<rect x="392" y="52.4" class="st6" width="110.9" height="101.7"/>
						</g>
					</g>
				</g>
			</g>
		</g>
		<g>
			<path class="st1" d="M433.4,10.4c-0.8,2.5-2.5,5.2-4.8,7.9c-2.5,2.8-5.7,5.5-9.4,8.1c-3.8,2.7-8.1,5.1-12.6,7.3     s-9.3,3.9-14.2,5.4c-4.8,1.3-9,2.1-12.8,2.2c-3.6,0.1-6.7-0.3-9-1.2s-3.8-2.2-4.4-4s-0.5-3.9,0.6-6.4c0.3-0.8,0.8-1.5,1.3-2.3     s1-1.6,1.7-2.4c0.7-0.8,1.3-1.6,2.1-2.4c0.8-0.8,1.5-1.6,2.4-2.4l2.3-2.1c3.3-2.8,7-5.2,10.7-7.5l2.1-1.2c0,0-4.1,3.1-6.1,5.7     c-1.2,1.5-2.1,2.7-2.6,3.9c-0.5,1.2-0.6,2.3-0.2,3c0.4,0.8,1.2,1.5,2.4,1.9c1.2,0.4,2.8,0.6,4.5,0.4c1.9-0.1,3.9-0.5,6.3-1.2     s4.7-1.6,6.9-2.7c2.2-1.1,4.3-2.3,6.1-3.5c1.9-1.3,3.4-2.6,4.7-3.9c1.3-1.3,2.2-2.7,2.6-3.8c0.4-1.2,0.4-2.2-0.1-3     s-1.4-1.3-2.6-1.7c-1.2-0.3-2.8-0.3-4.5,0.1c-1.7,0.3-3.8,0.5-6,1.2c-1.5,0.4-2.3,0.8-3.6,1.4C401.4,5,404,4,408.6,2.5     c2.9-1,5-1.5,7.7-2c3.1-0.6,5.8-0.5,8.2-0.3c2.4,0.2,4.5,0.7,6.1,1.5s2.8,1.9,3.3,3.2C433.9,6.7,434,8.4,433.4,10.4"/>
			<path class="st1" d="M492.8,116.1c0,0-1.1,2.9-2.1,4.5c-0.9,1.6-2.6,3.8-2.6,3.8s-0.6,0.8-1,1.3c-1.1,1.4-2.9,3.4-2.9,3.4     l-2.4,2.6c-2.5,2.6-5.2,4.9-8.3,7.3c-3,2.3-6.4,4.4-9.9,6.4s-7.3,3.6-11.2,5.1c-3.8,1.5-7.9,2.7-11.9,3.4     c-0.8,0.2-1.6,0.3-2.4,0.4s-1.5,0.3-2.3,0.4s-1.5,0.2-2.2,0.3c-0.8,0.1-1.5,0.1-2.2,0.2l-4.3,0.2h-1l-4.7-0.1l-4.7-0.4     c0,0-0.8-0.1-1.3-0.2c-2-0.3-3-0.4-5-0.9c-2.1-0.4-5-1.2-5-1.2l-2.6-0.9l-0.7-0.3c1.8,0.7,4.1,1.4,6.4,1.7     c2.4,0.4,4.8,0.6,7.5,0.6c2.7,0.1,5.5-0.1,8.4-0.4c2.9-0.3,6-0.8,9.1-1.5c7.3-1.5,14.6-3.9,21.3-7c6.9-3,13.3-6.7,19.1-10.8     c5.7-4,10.7-8.6,14.8-13.2C490.5,119.3,491.6,117.8,492.8,116.1C492.8,115.9,492.8,116.1,492.8,116.1"/>
			<path class="st1" d="M450.9,4.1L456,6l5,2.4l1.8,1c1.4,0.8,2.7,1.7,3.6,2.6c1.1,1,1.9,2.1,2.6,3.3s1,2.7,1.2,4.1     c0.2,1.5,0.1,3.1-0.3,4.8c-1,4.6-3.6,9.6-7.7,14.6c-4.1,5.1-9.8,10.3-16.5,15.1c-6.8,4.9-14.6,9.5-22.8,13.5     c-8.4,3.9-17.1,7.3-26,9.5c-7.9,2.1-15,3-21.2,3.2c-6.1,0.1-11.3-0.6-15.4-2.1c-3.9-1.5-7-3.6-8.7-6.4s-2.2-6.1-1.4-9.9l0.4-1.7     l1.5-5.4l1.9-5.2l1.9-4.4l1.7-3.6l-0.3,0.7c0.1-0.1-0.1,0.1-0.1,0.1c-1.7,3.6-2,6.8-1.2,9.3c0.9,2.7,2.9,4.8,6.1,6.2     c3.2,1.5,7.6,2.2,12.8,2.1c5.3-0.1,11.5-1,18.6-2.9c7.1-2,14.1-4.5,20.6-7.7c6.6-3.1,12.8-6.8,18.3-10.7     c5.4-3.8,9.9-7.9,13.4-11.9c3.4-3.9,5.7-7.9,6.6-11.5c0.4-1.9,0.5-3.5,0.3-5c-0.3-1.5-1-2.9-1.9-3.9c-0.9-1.1-2.2-2.1-3.7-2.9     c-1-0.5-2.2-1-3.4-1.3l-1.9-0.5c0.8,0.1,1.3,0.2,1.9,0.4c0,0,1.9,0.4,3,0.8C448.5,3.2,450.9,4.1,450.9,4.1"/>
			<path class="st1" d="M485,26.9l3.8,4.8l3.4,5.1l1.5,2.6c0.4,0.8,0.9,1.7,1.2,2.6c0.3,0.9,0.6,1.9,0.8,2.8c0.2,1,0.3,2.1,0.3,3     c0,1.1-0.1,2.2-0.2,3.2c-0.8,5.9-3.6,12.1-8.4,18.5s-11.4,13-19.3,19c-8.1,6.1-17.3,11.8-27.2,16.6c-10,4.8-20.7,8.7-31.4,11.2     c-7.7,1.8-14.7,2.8-21,3c-6.3,0.3-11.9-0.3-16.7-1.4c-4.7-1.2-8.7-2.9-11.7-5.1c-2.9-2.2-5.1-5-6.3-8.2l-1.2-3.4l-1.7-5.9l-1.2-6     l-0.3-1.7l-0.3-3.3c-0.1-0.3,0,0,0,0c0.4,3.2,1.8,6,3.9,8.4c2.5,2.7,6.1,4.7,10.6,6c4.6,1.4,10.2,2.1,16.6,1.8     c6.6-0.2,14-1.3,21.9-3.2c10.1-2.5,20.2-6.2,29.6-10.7s18.3-9.8,25.9-15.5c7.5-5.7,13.9-11.7,18.4-17.6s7.4-11.6,8.3-17     c0.3-1.5,0.3-2.9,0.3-4.3c-0.1-1.3-0.3-2.6-0.7-3.8c-0.4-1.2-0.9-2.3-1.6-3.3c-0.4-0.6-0.9-1.2-1.4-1.9l0,0l3.1,3.3L485,26.9z"/>
			<path class="st1" d="M503.6,71.4c0.4,4.8,0.6,7.7-0.2,12.4c-1.2,7.4-3.1,11.7-7.3,17.8c-4.2,6.1-10.1,12.3-17.2,17.9     c-7.2,5.7-15.4,10.9-24.6,15.2c-9,4.3-18.7,7.8-28.4,9.8c-5,1.1-9.8,1.8-14.4,2.1c-4.5,0.3-8.7,0.3-12.4-0.1     c-3.8-0.4-7.2-1.2-10.3-2.2c-3-1-5.7-2.4-7.9-3.9l-4.7-3.6l-3.9-3.5c0,0-2.7-2.6-4.2-4.4c-1.2-1.3-2.8-3.4-2.8-3.4     c-0.3-0.3,0,0,0,0c1.9,2.1,4,3.8,6.8,5.3c3.2,1.7,7.2,3,11.6,3.8c4.5,0.8,9.6,1.1,15.2,0.8c5.7-0.3,11.9-1.2,18.4-2.6     c10.5-2.4,21-6.1,31-10.8c9.8-4.7,19-10.3,26.7-16.5c7.7-6.1,14.2-12.6,18.8-19.2c4.5-6.4,7.3-12.8,8-18.8     c0.1-0.6,0.1-1.3,0.1-1.9s-0.1-1.3-0.1-1.9c-0.1-0.6,0.8,2.8,0.8,2.8S503.4,69.6,503.6,71.4"/>
		</g>
	</g>
</g>
</svg>