<?xml version="1.0" encoding="UTF-8"?> <svg xmlns="http://www.w3.org/2000/svg" width="183" height="53" viewBox="0 0 183 53" fill="none"> <path d="M177.89 0.0700073C175.13 0.0700073 172.9 2.29 172.9 5.06C172.9 7.82 175.13 10.05 177.89 10.05C180.66 10.05 182.89 7.82 182.89 5.06C182.89 2.29 180.66 0.0700073 177.89 0.0700073ZM177.89 7.10001C176.76 7.10001 175.86 6.19 175.86 5.06C175.86 3.93 176.76 3.01999 177.89 3.01999C179.02 3.01999 179.93 3.93 179.93 5.06C179.94 6.19 179.02 7.10001 177.89 7.10001Z" fill="#036CB5"></path> <path d="M43.06 10.73C39.28 10.73 36.21 11.98 33.87 14.45C31.52 16.9 30.35 19.93 30.35 23.56C30.35 27.43 31.66 30.55 34.26 32.9C36.88 35.25 40.09 36.42 43.91 36.42C47.91 36.42 51.02 35.59 53.2 33.92V28.4C50.68 29.84 48.08 30.55 45.37 30.55C43.19 30.55 41.37 30.11 39.92 29.23C38.46 28.34 37.57 27.09 37.2 25.46H54.72V23.65C54.72 20.07 53.66 17.02 51.54 14.51C49.41 12 46.58 10.73 43.06 10.73ZM37.2 21.07C37.37 19.6 37.95 18.42 38.96 17.52C39.97 16.62 41.23 16.18 42.78 16.18C44.28 16.18 45.5 16.64 46.42 17.58C47.35 18.51 47.85 19.68 47.91 21.07H37.2Z" fill="#036CB5"></path> <path d="M70.86 35.54V29.86C70.37 30.15 69.78 30.3 69.1 30.3C67.63 30.3 66.9 29.49 66.9 27.85V1.53H60V29.66C60 31.98 60.58 33.68 61.74 34.77C62.9 35.86 64.49 36.41 66.51 36.41C68.23 36.42 69.68 36.13 70.86 35.54Z" fill="#036CB5"></path> <path d="M82.45 27.86V1.54001H75.55V29.67C75.55 31.99 76.13 33.69 77.29 34.78C78.45 35.87 80.04 36.42 82.06 36.42C83.79 36.42 85.24 36.13 86.41 35.54V29.86C85.92 30.15 85.33 30.3 84.65 30.3C83.19 30.31 82.45 29.49 82.45 27.86Z" fill="#036CB5"></path> <path d="M107.75 35.79H114.65V11.37H107.75V26.93C107.16 27.84 106.36 28.6 105.33 29.21C104.3 29.81 103.27 30.11 102.22 30.11C100.85 30.11 99.73 29.69 98.87 28.84C98 27.99 97.57 26.69 97.57 24.93V11.38H90.67V26.35C90.67 29.51 91.45 31.98 93.02 33.76C94.59 35.54 96.77 36.43 99.58 36.43C102.84 36.43 105.57 35.24 107.75 32.86V35.79Z" fill="#036CB5"></path> <path d="M136.47 10.73C133.21 10.73 130.48 11.92 128.3 14.3V11.36H121.4V35.78H128.3V20.22C128.89 19.31 129.69 18.55 130.72 17.94C131.75 17.34 132.78 17.04 133.83 17.04C135.2 17.04 136.32 17.46 137.18 18.31C138.04 19.16 138.48 20.46 138.48 22.22V35.77H145.38V20.8C145.38 17.64 144.6 15.17 143.03 13.39C141.46 11.62 139.27 10.73 136.47 10.73Z" fill="#036CB5"></path> <path d="M173.18 28.6V20.32C173.18 17.32 172.09 14.98 169.94 13.27C167.85 11.57 165.05 10.72 161.53 10.72C157.98 10.72 154.96 11.38 152.48 12.69V18.47C154.76 17.1 157.22 16.41 159.87 16.41C164.17 16.41 166.33 17.95 166.33 21.01V21.75C164.4 20.74 162.06 20.22 159.29 20.22C156.64 20.22 154.38 20.9 152.48 22.27C150.59 23.65 149.64 25.65 149.64 28.24C149.64 30.69 150.49 32.66 152.14 34.16C153.81 35.66 155.97 36.41 158.65 36.41C162.1 36.41 164.92 35.3 167.07 33.08C167.99 35.17 169.82 36.21 172.6 36.21C174.18 36.21 175.43 35.87 176.31 35.19V30.15C175.96 30.34 175.49 30.44 174.89 30.44C173.74 30.45 173.18 29.84 173.18 28.6ZM166.32 28.6C165.05 30.25 163.21 31.09 160.79 31.09C159.46 31.09 158.39 30.82 157.61 30.28C156.82 29.74 156.44 28.94 156.44 27.91C156.44 26.9 156.87 26.12 157.73 25.56C158.6 25.01 159.76 24.73 161.23 24.73C163.2 24.73 164.88 25.2 166.32 26.15V28.6Z" fill="#036CB5"></path> <path d="M25.9 9.10999C25.08 8.73999 24.21 8.4 23.28 8.13C22.8 7.99 22.32 7.84 21.83 7.72C21.58 7.66 21.33 7.59999 21.08 7.54999C20.95 7.51999 20.82 7.5 20.69 7.47C20.55 7.44 20.52 7.40999 20.48 7.26999C20.12 5.88999 19.22 4.62 18.18 3.66C17.26 2.81 16.16 2.17001 14.97 1.79001C14.13 1.52001 13.25 1.39001 12.37 1.39001C12.08 1.39001 11.79 1.4 11.49 1.44C7.16001 1.87 3.78 5.53001 3.78 9.98001V30.99C3.55 32.89 2.56001 34.41 0.96001 35.38C0.46001 35.68 0.659998 36.43 1.26 36.43H13C19.93 36.43 25.56 30.8 25.56 23.86C25.56 19.59 23.41 15.81 20.17 13.55C20.61 12.61 20.88 11.56 20.93 10.46C20.94 10.34 21.01 10.23 21.13 10.19C21.85 9.95 22.64 9.75999 23.48 9.60999C24.22 9.48999 25 9.41 25.81 9.37C26 9.36 26.06 9.18999 25.9 9.10999ZM9.47001 9.95999C9.47001 9.87999 9.47 9.78999 9.48 9.70999C9.59 8.48999 10.45 7.48001 11.61 7.17001C11.76 7.12001 11.92 7.09999 12.07 7.07999C12.07 7.07999 12.07 7.07999 12.08 7.07999C12.17 7.06999 12.27 7.06 12.37 7.06C13.75 7.06 14.91 8.02999 15.18 9.32999C15.22 9.48999 15.24 9.64999 15.25 9.82999V9.95001C15.25 10.38 15.16 10.79 14.99 11.15C14.65 11.91 13.99 12.48 13.19 12.72C12.92 12.79 12.65 12.84 12.36 12.84C12.17 12.84 11.99 12.82 11.8 12.78C10.48 12.54 9.47001 11.37 9.47001 9.95999ZM13 29.82C12.36 29.82 11.73 29.71 11.15 29.51H11.14C13.37 24.66 11.91 19.58 11.56 18.51C11.83 18.54 12.1 18.55 12.36 18.55C13.22 18.55 14.03 18.42 14.81 18.2C17.21 18.97 18.94 21.22 18.94 23.86C18.95 27.15 16.28 29.82 13 29.82Z" fill="#036CB5"></path> <path d="M10.41 46.49C9.9 46.49 9.41 46.59 8.98 46.82V47.6C9.33 47.36 9.84 47.23 10.28 47.23C11.19 47.23 12.06 47.64 12.2 48.7H9.78V49.44H12.21C12.1 50.52 11.18 50.9 10.26 50.9C9.80999 50.9 9.33 50.79 8.97 50.52V51.34C9.39 51.54 9.88 51.67 10.38 51.67C11.7 51.67 13.03 50.91 13.03 49.14C13.04 47.31 11.71 46.49 10.41 46.49Z" fill="#036CB5"></path> <path d="M22.31 46.57H21.4L20 48.65H19.02V46.57H18.2V51.55H19.02V49.4H20.01L21.51 51.55H22.45L20.67 48.99L22.31 46.57Z" fill="#036CB5"></path> <path d="M27.6 49.1C27.6 47.78 28.59 47.22 29.54 47.22C30.02 47.22 30.49 47.35 30.83 47.59V46.81C30.41 46.58 29.91 46.48 29.42 46.48C28.12 46.48 26.79 47.33 26.79 49.1C26.78 50.81 28.15 51.65 29.44 51.65C29.96 51.65 30.47 51.52 30.87 51.32V50.5C30.54 50.77 30.09 50.9 29.57 50.9C28.6 50.9 27.6 50.33 27.6 49.1Z" fill="#036CB5"></path> <path d="M36.03 51.55H36.84V47.32H39.41V51.55H40.22V46.57H36.03V51.55Z" fill="#036CB5"></path> <path d="M46.5 49.42H48.9V48.67H46.5V47.31H49.13V46.57H45.69V51.55H49.16V50.82H46.5V49.42Z" fill="#036CB5"></path> <path d="M56.13 46.57H54.36V51.55H55.17V49.84H56.13C57.32 49.84 58.27 49.49 58.27 48.2C58.27 46.94 57.32 46.57 56.13 46.57ZM56.19 49.1H55.17V47.3H56.19C56.87 47.3 57.45 47.48 57.45 48.19C57.45 48.93 56.87 49.1 56.19 49.1Z" fill="#036CB5"></path> <path d="M62.84 47.32H64.5V51.55H65.32V47.32H66.96V46.57H62.84V47.32Z" fill="#036CB5"></path> <path d="M73.72 48.27H72.74V46.57H71.92V51.55H73.72C74.89 51.55 75.84 51.17 75.84 49.91C75.84 48.65 74.89 48.28 73.72 48.27ZM73.76 50.82H72.74V49.02H73.76C74.44 49.02 75.02 49.19 75.02 49.91C75.02 50.65 74.44 50.82 73.76 50.82Z" fill="#036CB5"></path> <path d="M77.13 46.57H76.32V51.55H77.13V46.57Z" fill="#036CB5"></path> <path d="M88.55 51.55H89.37V47.32H91.93V51.55H92.75V46.57H88.55V51.55Z" fill="#036CB5"></path> <path d="M100.52 46.49C98.75 46.49 97.9 47.75 97.9 49.06C97.9 50.38 98.75 51.65 100.52 51.65C102.27 51.65 103.14 50.38 103.14 49.06C103.13 47.75 102.27 46.49 100.52 46.49ZM100.52 50.89C99.32 50.89 98.74 50.03 98.74 49.06C98.74 48.11 99.32 47.23 100.52 47.23C101.74 47.23 102.32 48.11 102.32 49.06C102.31 50.02 101.73 50.89 100.52 50.89Z" fill="#036CB5"></path> <path d="M118.24 46.57H117.28L115.98 48.37L114.69 46.57H113.72L115.47 48.98L113.62 51.55H114.58L115.98 49.58L117.38 51.55H118.36L116.47 48.98L118.24 46.57Z" fill="#036CB5"></path> <path d="M125.27 46.49C123.5 46.49 122.64 47.75 122.64 49.06C122.64 50.38 123.5 51.65 125.27 51.65C127.02 51.65 127.89 50.38 127.89 49.06C127.89 47.75 127.03 46.49 125.27 46.49ZM125.27 50.89C124.05 50.89 123.46 50.03 123.46 49.06C123.46 48.11 124.05 47.23 125.27 47.23C126.47 47.23 127.05 48.11 127.05 49.06C127.06 50.02 126.48 50.89 125.27 50.89Z" fill="#036CB5"></path> <path d="M132.7 50.84C132.54 50.84 132.45 50.83 132.35 50.8V51.54C132.53 51.6 132.7 51.62 132.85 51.62C134.19 51.62 134.39 49.51 134.59 47.32H136.23V51.55H137.04V46.57H133.83C133.66 48.55 133.56 50.82 132.7 50.84Z" fill="#036CB5"></path> <path d="M144.81 46.49C143.04 46.49 142.19 47.75 142.19 49.06C142.19 50.38 143.04 51.65 144.81 51.65C146.56 51.65 147.43 50.38 147.43 49.06C147.43 47.75 146.57 46.49 144.81 46.49ZM144.81 50.89C143.61 50.89 143.01 50.03 143.01 49.06C143.01 48.11 143.6 47.23 144.81 47.23C146.02 47.23 146.61 48.11 146.61 49.06C146.61 50.02 146.01 50.89 144.81 50.89Z" fill="#036CB5"></path> <path d="M156.58 46.57H153.35C153.35 48.04 153.19 49.65 152.56 50.81H151.97V52.68H152.71V51.55H156.47V52.68H157.21V50.81H156.59V46.57H156.58ZM155.76 50.82H153.44C153.92 49.91 154.08 48.56 154.16 47.33H155.76V50.82V50.82Z" fill="#036CB5"></path> <path d="M164.17 49.42L162.64 46.58H161.72L163.74 50.17L163.66 50.35C163.46 50.76 163.19 50.9 162.78 50.9C162.58 50.9 162.37 50.87 162.2 50.82V51.53C162.43 51.61 162.68 51.66 162.91 51.66C163.5 51.66 164.07 51.38 164.52 50.43L166.32 46.58H165.44L164.17 49.42Z" fill="#036CB5"></path> <path d="M12.24 10.6C12.28 10.6 12.33 10.61 12.37 10.61C12.44 10.61 12.5 10.6 12.56 10.58C12.74 10.53 12.88 10.4 12.96 10.23C13 10.15 13.02 10.06 13.02 9.95999V9.92999C13.02 9.88999 13.01 9.86001 13 9.82001C12.95 9.59001 12.79 9.42001 12.58 9.35001C12.52 9.32001 12.44 9.31 12.37 9.31H12.3C11.98 9.35 11.72 9.61999 11.72 9.95999C11.72 10.08 11.75 10.19 11.81 10.27C11.89 10.45 12.05 10.56 12.24 10.6Z" fill="#036CB5"></path> </svg> 